<svg xmlns="http://www.w3.org/2000/svg" xmlns:xlink="http://www.w3.org/1999/xlink" width="500" zoomAndPan="magnify" viewBox="0 0 375 149.999998" height="200" preserveAspectRatio="xMidYMid meet" version="1.0"><defs><g/></defs><path fill="#f4991a" d="M 90.503906 101.28125 C 90.523438 97.472656 90.546875 93.53125 90.566406 93.105469 C 90.589844 92.429688 90.636719 91.828125 90.671875 91.308594 C 96.019531 90.171875 100.070312 84.796875 100.070312 78.335938 C 100.070312 71.058594 94.914062 56.769531 88.554688 56.769531 C 88.019531 56.769531 87.492188 56.875 86.980469 57.0625 L 86.964844 57.066406 C 86.792969 57.132812 86.621094 57.207031 86.453125 57.289062 L 86.421875 57.304688 C 86.253906 57.386719 86.089844 57.480469 85.925781 57.582031 L 85.886719 57.601562 C 85.722656 57.707031 85.558594 57.8125 85.398438 57.933594 L 85.359375 57.957031 C 85.199219 58.082031 85.042969 58.207031 84.886719 58.339844 L 84.851562 58.371094 C 84.691406 58.511719 84.535156 58.652344 84.382812 58.804688 L 84.351562 58.835938 C 84.195312 58.988281 84.039062 59.148438 83.882812 59.316406 L 83.867188 59.335938 C 82.265625 61.109375 80.855469 63.621094 79.742188 66.351562 L 79.722656 66.394531 C 79.632812 66.628906 79.535156 66.863281 79.449219 67.09375 C 79.429688 67.148438 79.40625 67.203125 79.386719 67.257812 C 79.304688 67.464844 79.230469 67.675781 79.152344 67.890625 C 79.125 67.96875 79.09375 68.046875 79.070312 68.125 C 78.996094 68.324219 78.929688 68.519531 78.867188 68.71875 C 78.832031 68.8125 78.800781 68.90625 78.769531 69 C 78.707031 69.183594 78.652344 69.371094 78.59375 69.554688 C 78.558594 69.667969 78.523438 69.773438 78.492188 69.886719 C 78.441406 70.058594 78.386719 70.234375 78.335938 70.40625 C 78.304688 70.523438 78.269531 70.644531 78.238281 70.765625 C 78.1875 70.929688 78.144531 71.09375 78.101562 71.257812 C 78.070312 71.386719 78.035156 71.515625 78.003906 71.640625 C 77.960938 71.800781 77.925781 71.957031 77.890625 72.109375 C 77.855469 72.242188 77.824219 72.378906 77.792969 72.511719 C 77.757812 72.660156 77.726562 72.804688 77.695312 72.957031 C 77.664062 73.09375 77.636719 73.230469 77.609375 73.367188 C 77.578125 73.511719 77.550781 73.652344 77.523438 73.789062 C 77.496094 73.929688 77.472656 74.074219 77.445312 74.210938 C 77.421875 74.34375 77.398438 74.480469 77.375 74.609375 C 77.355469 74.753906 77.332031 74.894531 77.3125 75.039062 C 77.292969 75.160156 77.273438 75.285156 77.253906 75.410156 C 77.234375 75.554688 77.21875 75.699219 77.199219 75.84375 C 77.183594 75.957031 77.171875 76.070312 77.160156 76.1875 C 77.144531 76.335938 77.128906 76.484375 77.117188 76.632812 C 77.109375 76.734375 77.097656 76.835938 77.089844 76.9375 C 77.078125 77.097656 77.070312 77.25 77.0625 77.40625 C 77.054688 77.492188 77.050781 77.574219 77.046875 77.65625 C 77.035156 77.890625 77.03125 78.113281 77.03125 78.335938 C 77.03125 78.707031 77.046875 79.078125 77.074219 79.441406 C 77.078125 79.488281 77.082031 79.539062 77.085938 79.585938 C 77.113281 79.933594 77.15625 80.273438 77.203125 80.613281 C 77.214844 80.671875 77.222656 80.726562 77.230469 80.78125 C 77.289062 81.125 77.355469 81.457031 77.429688 81.78125 C 77.441406 81.828125 77.453125 81.871094 77.464844 81.914062 C 77.546875 82.257812 77.640625 82.597656 77.75 82.925781 L 77.753906 82.933594 C 77.867188 83.285156 77.992188 83.632812 78.136719 83.972656 L 78.136719 83.980469 C 78.273438 84.316406 78.425781 84.636719 78.585938 84.953125 L 78.605469 84.996094 C 78.769531 85.316406 78.941406 85.625 79.125 85.921875 L 79.128906 85.925781 C 80.828125 88.691406 83.425781 90.667969 86.433594 91.308594 C 86.46875 91.828125 86.511719 92.429688 86.535156 93.105469 C 86.554688 93.53125 86.574219 97.472656 86.597656 101.28125 C 77.265625 100.59375 69.289062 95.039062 65.199219 87.148438 C 67.074219 83.53125 68.128906 79.429688 68.128906 75.066406 C 68.128906 70.710938 67.074219 66.605469 65.199219 62.988281 C 69.574219 54.546875 78.386719 48.78125 88.550781 48.78125 C 98.898438 48.78125 107.851562 54.757812 112.140625 63.457031 C 110.421875 66.949219 109.457031 70.878906 109.457031 75.042969 C 109.457031 79.210938 110.429688 83.152344 112.15625 86.65625 C 108.144531 94.808594 100.027344 100.578125 90.503906 101.28125 " fill-opacity="1" fill-rule="nonzero"/><path fill="#321313" d="M 43.792969 101.28125 C 43.816406 97.273438 43.839844 92.875 43.859375 92.421875 C 43.886719 91.671875 43.941406 91.015625 43.976562 90.460938 C 47.75 89.078125 50.558594 84.136719 50.613281 78.214844 L 50.601562 78.214844 C 50.601562 78.117188 50.609375 78.023438 50.601562 77.921875 C 50.070312 71.476562 49.527344 65.019531 48.988281 58.578125 C 48.886719 57.339844 48.546875 56.347656 48.230469 56.347656 C 47.910156 56.355469 47.617188 57.367188 47.566406 58.609375 C 47.320312 65.070312 47.070312 71.539062 46.820312 78.007812 C 46.816406 78.082031 46.828125 78.144531 46.832031 78.214844 L 46.015625 78.214844 C 46.019531 78.132812 46.03125 78.0625 46.027344 77.976562 C 45.660156 71.511719 45.292969 65.050781 44.925781 58.59375 C 44.859375 57.351562 44.539062 56.347656 44.222656 56.34375 C 43.910156 56.34375 43.585938 57.34375 43.507812 58.585938 C 43.085938 65.039062 42.664062 71.5 42.238281 77.960938 C 42.234375 78.050781 42.242188 78.128906 42.246094 78.214844 L 41.4375 78.214844 C 41.4375 78.136719 41.449219 78.066406 41.445312 77.988281 C 41.109375 71.519531 40.773438 65.054688 40.433594 58.59375 C 40.371094 57.355469 40.058594 56.347656 39.742188 56.34375 C 39.425781 56.34375 39.101562 57.34375 39.015625 58.585938 C 38.5625 65.035156 38.113281 71.496094 37.660156 77.953125 C 37.652344 78.042969 37.660156 78.128906 37.664062 78.214844 L 36.851562 78.214844 C 36.855469 78.144531 36.867188 78.082031 36.863281 78.007812 C 36.628906 72.011719 36.402344 66.011719 36.171875 60.019531 L 36.171875 60.015625 C 36.152344 59.546875 36.132812 59.078125 36.113281 58.609375 C 36.066406 57.367188 35.769531 56.355469 35.453125 56.347656 L 35.449219 56.347656 C 35.136719 56.347656 34.796875 57.339844 34.695312 58.578125 C 34.15625 65.019531 33.613281 71.476562 33.078125 77.921875 C 33.074219 78.023438 33.078125 78.117188 33.082031 78.214844 L 33.070312 78.214844 C 33.074219 78.625 33.09375 79.027344 33.121094 79.421875 C 33.132812 79.550781 33.148438 79.679688 33.160156 79.8125 C 33.1875 80.070312 33.214844 80.335938 33.25 80.589844 C 33.269531 80.75 33.296875 80.898438 33.320312 81.046875 C 33.359375 81.273438 33.398438 81.503906 33.445312 81.722656 C 33.480469 81.886719 33.511719 82.042969 33.550781 82.199219 C 33.597656 82.40625 33.652344 82.609375 33.707031 82.808594 C 33.753906 82.972656 33.796875 83.132812 33.84375 83.289062 C 33.902344 83.472656 33.964844 83.648438 34.027344 83.828125 C 34.085938 83.996094 34.136719 84.164062 34.199219 84.328125 L 34.21875 84.371094 C 34.421875 84.890625 34.652344 85.382812 34.902344 85.855469 C 34.941406 85.925781 34.976562 86.003906 35.015625 86.074219 C 35.132812 86.28125 35.257812 86.488281 35.386719 86.6875 C 35.425781 86.753906 35.464844 86.816406 35.503906 86.878906 C 35.640625 87.085938 35.777344 87.28125 35.921875 87.476562 C 35.953125 87.519531 35.984375 87.5625 36.019531 87.605469 C 36.175781 87.804688 36.339844 88.003906 36.507812 88.195312 L 36.519531 88.207031 C 37.453125 89.253906 38.535156 90.027344 39.710938 90.460938 C 39.734375 90.824219 39.765625 91.230469 39.792969 91.679688 C 39.796875 91.738281 39.800781 91.792969 39.804688 91.851562 C 39.8125 92.035156 39.824219 92.222656 39.828125 92.421875 C 39.847656 92.875 39.871094 97.273438 39.894531 101.28125 C 26.285156 100.28125 15.554688 88.933594 15.554688 75.066406 C 15.554688 60.550781 27.324219 48.78125 41.839844 48.78125 C 52.003906 48.78125 60.824219 54.546875 65.199219 62.988281 C 63.320312 66.605469 62.261719 70.710938 62.261719 75.066406 C 62.261719 79.425781 63.320312 83.53125 65.199219 87.148438 C 61.101562 95.039062 53.125 100.59375 43.792969 101.28125 " fill-opacity="1" fill-rule="nonzero"/><path fill="#321313" d="M 65.199219 87.148438 C 63.320312 83.53125 62.261719 79.425781 62.261719 75.066406 C 62.261719 70.710938 63.320312 66.605469 65.199219 62.988281 C 67.074219 66.605469 68.128906 70.710938 68.128906 75.066406 C 68.128906 79.429688 67.074219 83.53125 65.199219 87.148438 " fill-opacity="1" fill-rule="nonzero"/><path fill="#f2ead3" d="M 136.527344 101.308594 C 136.519531 99.820312 136.535156 98.429688 136.574219 97.195312 C 136.578125 97.023438 136.582031 96.378906 136.589844 95.492188 L 137.777344 95.492188 C 139.292969 95.492188 140.519531 94.265625 140.519531 92.75 C 140.519531 92.75 140.535156 54.894531 136.132812 54.894531 C 135.683594 54.894531 135.253906 55.019531 134.871094 55.226562 C 134.566406 55.390625 134.292969 55.605469 134.066406 55.867188 L 133.992188 55.960938 C 133.929688 56.035156 133.875 56.105469 133.824219 56.1875 C 133.753906 56.296875 133.6875 56.414062 133.632812 56.535156 C 133.613281 56.578125 133.597656 56.625 133.582031 56.671875 C 133.535156 56.78125 133.5 56.890625 133.472656 57 C 133.460938 57.050781 133.453125 57.097656 133.445312 57.148438 C 133.414062 57.308594 133.390625 57.464844 133.390625 57.636719 C 133.390625 57.636719 133.457031 96.816406 133.460938 97.195312 C 133.496094 98.410156 133.511719 99.773438 133.507812 101.230469 C 124.121094 100.4375 116.132812 94.710938 112.15625 86.65625 C 113.875 83.160156 114.839844 79.230469 114.839844 75.066406 C 114.839844 70.898438 113.871094 66.957031 112.140625 63.457031 C 116.425781 54.746094 125.386719 48.753906 135.742188 48.753906 C 150.265625 48.753906 162.035156 60.523438 162.035156 75.042969 C 162.035156 89.300781 150.683594 100.898438 136.527344 101.308594 " fill-opacity="1" fill-rule="nonzero"/><path fill="#f4991a" d="M 112.15625 86.65625 C 110.429688 83.152344 109.457031 79.210938 109.457031 75.042969 C 109.457031 70.878906 110.421875 66.949219 112.140625 63.457031 C 113.871094 66.957031 114.839844 70.898438 114.839844 75.066406 C 114.839844 79.230469 113.875 83.160156 112.15625 86.65625 " fill-opacity="1" fill-rule="nonzero"/><g fill="#321313" fill-opacity="1"><g transform="translate(179.349739, 86.519737)"><g><path d="M 8.578125 0 L 2.875 0 L 2.875 -27.4375 L 8.578125 -27.4375 Z M 8.578125 0 "/></g></g></g><g fill="#321313" fill-opacity="1"><g transform="translate(190.805659, 86.519737)"><g><path d="M 8.890625 0.296875 C 8.003906 0.296875 7.21875 0.171875 6.53125 -0.078125 C 5.851562 -0.335938 5.28125 -0.707031 4.8125 -1.1875 C 4.351562 -1.664062 4.003906 -2.242188 3.765625 -2.921875 C 3.523438 -3.609375 3.40625 -4.378906 3.40625 -5.234375 L 3.40625 -15.75 L 1.5625 -15.75 C 1.289062 -15.75 1.054688 -15.835938 0.859375 -16.015625 C 0.660156 -16.191406 0.5625 -16.457031 0.5625 -16.8125 L 0.5625 -18.84375 L 3.6875 -19.421875 L 4.75 -24.46875 C 4.882812 -25.03125 5.269531 -25.3125 5.90625 -25.3125 L 8.625 -25.3125 L 8.625 -19.375 L 13.65625 -19.375 L 13.65625 -15.75 L 8.625 -15.75 L 8.625 -5.578125 C 8.625 -5.035156 8.75 -4.601562 9 -4.28125 C 9.257812 -3.96875 9.628906 -3.8125 10.109375 -3.8125 C 10.367188 -3.8125 10.582031 -3.835938 10.75 -3.890625 C 10.925781 -3.953125 11.078125 -4.019531 11.203125 -4.09375 C 11.335938 -4.164062 11.457031 -4.226562 11.5625 -4.28125 C 11.664062 -4.34375 11.773438 -4.375 11.890625 -4.375 C 12.046875 -4.375 12.171875 -4.335938 12.265625 -4.265625 C 12.367188 -4.191406 12.472656 -4.070312 12.578125 -3.90625 L 14.140625 -1.421875 C 13.421875 -0.847656 12.609375 -0.414062 11.703125 -0.125 C 10.796875 0.15625 9.859375 0.296875 8.890625 0.296875 Z M 8.890625 0.296875 "/></g></g></g><g fill="#321313" fill-opacity="1"><g transform="translate(205.078298, 86.519737)"><g><path d="M 12.34375 -8.15625 C 11.070312 -8.082031 10.015625 -7.96875 9.171875 -7.8125 C 8.328125 -7.65625 7.65625 -7.453125 7.15625 -7.203125 C 6.65625 -6.953125 6.300781 -6.664062 6.09375 -6.34375 C 5.882812 -6.019531 5.78125 -5.671875 5.78125 -5.296875 C 5.78125 -4.535156 5.988281 -4 6.40625 -3.6875 C 6.832031 -3.375 7.425781 -3.21875 8.1875 -3.21875 C 9.050781 -3.21875 9.800781 -3.367188 10.4375 -3.671875 C 11.082031 -3.984375 11.71875 -4.46875 12.34375 -5.125 Z M 1.71875 -16.78125 C 2.863281 -17.820312 4.128906 -18.597656 5.515625 -19.109375 C 6.898438 -19.617188 8.398438 -19.875 10.015625 -19.875 C 11.179688 -19.875 12.21875 -19.679688 13.125 -19.296875 C 14.039062 -18.921875 14.816406 -18.394531 15.453125 -17.71875 C 16.085938 -17.050781 16.578125 -16.25 16.921875 -15.3125 C 17.265625 -14.382812 17.4375 -13.363281 17.4375 -12.25 L 17.4375 0 L 15.046875 0 C 14.554688 0 14.179688 -0.0664062 13.921875 -0.203125 C 13.660156 -0.347656 13.453125 -0.640625 13.296875 -1.078125 L 12.875 -2.328125 C 12.382812 -1.898438 11.90625 -1.519531 11.4375 -1.1875 C 10.976562 -0.863281 10.503906 -0.585938 10.015625 -0.359375 C 9.523438 -0.140625 9 0.0195312 8.4375 0.125 C 7.875 0.238281 7.25 0.296875 6.5625 0.296875 C 5.707031 0.296875 4.925781 0.1875 4.21875 -0.03125 C 3.507812 -0.257812 2.898438 -0.597656 2.390625 -1.046875 C 1.878906 -1.492188 1.484375 -2.050781 1.203125 -2.71875 C 0.929688 -3.382812 0.796875 -4.15625 0.796875 -5.03125 C 0.796875 -5.75 0.976562 -6.46875 1.34375 -7.1875 C 1.707031 -7.90625 2.332031 -8.554688 3.21875 -9.140625 C 4.113281 -9.722656 5.300781 -10.207031 6.78125 -10.59375 C 8.257812 -10.976562 10.113281 -11.195312 12.34375 -11.25 L 12.34375 -12.25 C 12.34375 -13.46875 12.082031 -14.363281 11.5625 -14.9375 C 11.050781 -15.519531 10.3125 -15.8125 9.34375 -15.8125 C 8.625 -15.8125 8.023438 -15.722656 7.546875 -15.546875 C 7.066406 -15.378906 6.644531 -15.195312 6.28125 -15 C 5.925781 -14.800781 5.585938 -14.617188 5.265625 -14.453125 C 4.953125 -14.285156 4.585938 -14.203125 4.171875 -14.203125 C 3.804688 -14.203125 3.5 -14.289062 3.25 -14.46875 C 3.007812 -14.65625 2.804688 -14.875 2.640625 -15.125 Z M 1.71875 -16.78125 "/></g></g></g><g fill="#321313" fill-opacity="1"><g transform="translate(224.436156, 86.519737)"><g><path d="M 8.546875 -16.109375 L 9.65625 -16.109375 C 10.59375 -16.109375 11.269531 -16.398438 11.6875 -16.984375 L 18.625 -26.265625 C 18.945312 -26.703125 19.300781 -27.003906 19.6875 -27.171875 C 20.082031 -27.347656 20.566406 -27.4375 21.140625 -27.4375 L 26.046875 -27.4375 L 17.3125 -16.1875 C 16.75 -15.457031 16.164062 -14.929688 15.5625 -14.609375 C 16 -14.429688 16.394531 -14.203125 16.75 -13.921875 C 17.101562 -13.640625 17.441406 -13.265625 17.765625 -12.796875 L 26.734375 0 L 21.6875 0 C 21.351562 0 21.070312 -0.0234375 20.84375 -0.078125 C 20.613281 -0.128906 20.410156 -0.195312 20.234375 -0.28125 C 20.054688 -0.375 19.90625 -0.484375 19.78125 -0.609375 C 19.65625 -0.742188 19.535156 -0.898438 19.421875 -1.078125 L 12.359375 -10.953125 C 12.117188 -11.285156 11.832031 -11.523438 11.5 -11.671875 C 11.175781 -11.816406 10.722656 -11.890625 10.140625 -11.890625 L 8.546875 -11.890625 L 8.546875 0 L 2.875 0 L 2.875 -27.4375 L 8.546875 -27.4375 Z M 8.546875 -16.109375 "/></g></g></g><g fill="#321313" fill-opacity="1"><g transform="translate(250.712937, 86.519737)"><g><path d="M 7.53125 -19.5 L 7.53125 0 L 2.3125 0 L 2.3125 -19.5 Z M 8.15625 -25.03125 C 8.15625 -24.59375 8.066406 -24.179688 7.890625 -23.796875 C 7.710938 -23.421875 7.472656 -23.085938 7.171875 -22.796875 C 6.878906 -22.503906 6.535156 -22.273438 6.140625 -22.109375 C 5.742188 -21.953125 5.316406 -21.875 4.859375 -21.875 C 4.429688 -21.875 4.023438 -21.953125 3.640625 -22.109375 C 3.253906 -22.273438 2.914062 -22.503906 2.625 -22.796875 C 2.332031 -23.085938 2.101562 -23.421875 1.9375 -23.796875 C 1.769531 -24.179688 1.6875 -24.59375 1.6875 -25.03125 C 1.6875 -25.46875 1.769531 -25.878906 1.9375 -26.265625 C 2.101562 -26.648438 2.332031 -26.988281 2.625 -27.28125 C 2.914062 -27.570312 3.253906 -27.796875 3.640625 -27.953125 C 4.023438 -28.117188 4.429688 -28.203125 4.859375 -28.203125 C 5.316406 -28.203125 5.742188 -28.117188 6.140625 -27.953125 C 6.535156 -27.796875 6.878906 -27.570312 7.171875 -27.28125 C 7.472656 -26.988281 7.710938 -26.648438 7.890625 -26.265625 C 8.066406 -25.878906 8.15625 -25.46875 8.15625 -25.03125 Z M 8.15625 -25.03125 "/></g></g></g><g fill="#321313" fill-opacity="1"><g transform="translate(260.543093, 86.519737)"><g><path d="M 8.890625 0.296875 C 8.003906 0.296875 7.21875 0.171875 6.53125 -0.078125 C 5.851562 -0.335938 5.28125 -0.707031 4.8125 -1.1875 C 4.351562 -1.664062 4.003906 -2.242188 3.765625 -2.921875 C 3.523438 -3.609375 3.40625 -4.378906 3.40625 -5.234375 L 3.40625 -15.75 L 1.5625 -15.75 C 1.289062 -15.75 1.054688 -15.835938 0.859375 -16.015625 C 0.660156 -16.191406 0.5625 -16.457031 0.5625 -16.8125 L 0.5625 -18.84375 L 3.6875 -19.421875 L 4.75 -24.46875 C 4.882812 -25.03125 5.269531 -25.3125 5.90625 -25.3125 L 8.625 -25.3125 L 8.625 -19.375 L 13.65625 -19.375 L 13.65625 -15.75 L 8.625 -15.75 L 8.625 -5.578125 C 8.625 -5.035156 8.75 -4.601562 9 -4.28125 C 9.257812 -3.96875 9.628906 -3.8125 10.109375 -3.8125 C 10.367188 -3.8125 10.582031 -3.835938 10.75 -3.890625 C 10.925781 -3.953125 11.078125 -4.019531 11.203125 -4.09375 C 11.335938 -4.164062 11.457031 -4.226562 11.5625 -4.28125 C 11.664062 -4.34375 11.773438 -4.375 11.890625 -4.375 C 12.046875 -4.375 12.171875 -4.335938 12.265625 -4.265625 C 12.367188 -4.191406 12.472656 -4.070312 12.578125 -3.90625 L 14.140625 -1.421875 C 13.421875 -0.847656 12.609375 -0.414062 11.703125 -0.125 C 10.796875 0.15625 9.859375 0.296875 8.890625 0.296875 Z M 8.890625 0.296875 "/></g></g></g><g fill="#321313" fill-opacity="1"><g transform="translate(274.815732, 86.519737)"><g><path d="M 16.296875 -15.140625 C 16.148438 -14.941406 16 -14.785156 15.84375 -14.671875 C 15.6875 -14.566406 15.472656 -14.515625 15.203125 -14.515625 C 14.953125 -14.515625 14.707031 -14.585938 14.46875 -14.734375 C 14.238281 -14.878906 13.972656 -15.035156 13.671875 -15.203125 C 13.367188 -15.378906 13.007812 -15.539062 12.59375 -15.6875 C 12.175781 -15.832031 11.660156 -15.90625 11.046875 -15.90625 C 10.265625 -15.90625 9.585938 -15.757812 9.015625 -15.46875 C 8.441406 -15.1875 7.960938 -14.78125 7.578125 -14.25 C 7.203125 -13.726562 6.921875 -13.085938 6.734375 -12.328125 C 6.554688 -11.566406 6.46875 -10.71875 6.46875 -9.78125 C 6.46875 -7.78125 6.863281 -6.25 7.65625 -5.1875 C 8.457031 -4.132812 9.554688 -3.609375 10.953125 -3.609375 C 11.429688 -3.609375 11.84375 -3.648438 12.1875 -3.734375 C 12.53125 -3.816406 12.832031 -3.921875 13.09375 -4.046875 C 13.351562 -4.171875 13.578125 -4.304688 13.765625 -4.453125 C 13.953125 -4.609375 14.128906 -4.75 14.296875 -4.875 C 14.472656 -5 14.644531 -5.101562 14.8125 -5.1875 C 14.976562 -5.269531 15.171875 -5.3125 15.390625 -5.3125 C 15.796875 -5.3125 16.109375 -5.160156 16.328125 -4.859375 L 17.828125 -2.96875 C 17.273438 -2.320312 16.679688 -1.785156 16.046875 -1.359375 C 15.421875 -0.941406 14.769531 -0.609375 14.09375 -0.359375 C 13.414062 -0.117188 12.726562 0.046875 12.03125 0.140625 C 11.34375 0.234375 10.660156 0.28125 9.984375 0.28125 C 8.785156 0.28125 7.648438 0.0546875 6.578125 -0.390625 C 5.503906 -0.835938 4.5625 -1.488281 3.75 -2.34375 C 2.945312 -3.195312 2.3125 -4.25 1.84375 -5.5 C 1.375 -6.75 1.140625 -8.175781 1.140625 -9.78125 C 1.140625 -11.195312 1.34375 -12.515625 1.75 -13.734375 C 2.164062 -14.960938 2.773438 -16.023438 3.578125 -16.921875 C 4.390625 -17.816406 5.390625 -18.519531 6.578125 -19.03125 C 7.773438 -19.539062 9.15625 -19.796875 10.71875 -19.796875 C 12.207031 -19.796875 13.507812 -19.554688 14.625 -19.078125 C 15.75 -18.597656 16.757812 -17.90625 17.65625 -17 Z M 16.296875 -15.140625 "/></g></g></g><g fill="#321313" fill-opacity="1"><g transform="translate(293.114951, 86.519737)"><g><path d="M 7.375 -17.578125 C 7.738281 -17.910156 8.117188 -18.210938 8.515625 -18.484375 C 8.910156 -18.753906 9.332031 -18.984375 9.78125 -19.171875 C 10.226562 -19.367188 10.707031 -19.519531 11.21875 -19.625 C 11.726562 -19.738281 12.28125 -19.796875 12.875 -19.796875 C 13.9375 -19.796875 14.875 -19.613281 15.6875 -19.25 C 16.507812 -18.882812 17.203125 -18.375 17.765625 -17.71875 C 18.328125 -17.0625 18.75 -16.28125 19.03125 -15.375 C 19.3125 -14.46875 19.453125 -13.472656 19.453125 -12.390625 L 19.453125 0 L 14.25 0 L 14.25 -12.390625 C 14.25 -13.472656 14 -14.3125 13.5 -14.90625 C 13 -15.507812 12.253906 -15.8125 11.265625 -15.8125 C 10.535156 -15.8125 9.847656 -15.648438 9.203125 -15.328125 C 8.566406 -15.015625 7.957031 -14.578125 7.375 -14.015625 L 7.375 0 L 2.15625 0 L 2.15625 -28.1875 L 7.375 -28.1875 Z M 7.375 -17.578125 "/></g></g></g><g fill="#321313" fill-opacity="1"><g transform="translate(314.552263, 86.519737)"><g><path d="M 14.515625 -12.046875 C 14.515625 -12.585938 14.441406 -13.101562 14.296875 -13.59375 C 14.148438 -14.082031 13.921875 -14.515625 13.609375 -14.890625 C 13.296875 -15.273438 12.898438 -15.578125 12.421875 -15.796875 C 11.941406 -16.015625 11.367188 -16.125 10.703125 -16.125 C 9.453125 -16.125 8.472656 -15.769531 7.765625 -15.0625 C 7.066406 -14.363281 6.609375 -13.359375 6.390625 -12.046875 Z M 6.3125 -8.9375 C 6.476562 -7.113281 7 -5.78125 7.875 -4.9375 C 8.75 -4.09375 9.894531 -3.671875 11.3125 -3.671875 C 12.03125 -3.671875 12.648438 -3.753906 13.171875 -3.921875 C 13.691406 -4.085938 14.148438 -4.273438 14.546875 -4.484375 C 14.941406 -4.691406 15.300781 -4.878906 15.625 -5.046875 C 15.945312 -5.222656 16.265625 -5.3125 16.578125 -5.3125 C 16.984375 -5.3125 17.300781 -5.160156 17.53125 -4.859375 L 19.03125 -2.96875 C 18.476562 -2.320312 17.867188 -1.785156 17.203125 -1.359375 C 16.535156 -0.941406 15.84375 -0.609375 15.125 -0.359375 C 14.40625 -0.117188 13.679688 0.046875 12.953125 0.140625 C 12.222656 0.234375 11.515625 0.28125 10.828125 0.28125 C 9.472656 0.28125 8.203125 0.0546875 7.015625 -0.390625 C 5.835938 -0.835938 4.8125 -1.5 3.9375 -2.375 C 3.0625 -3.25 2.367188 -4.332031 1.859375 -5.625 C 1.359375 -6.925781 1.109375 -8.4375 1.109375 -10.15625 C 1.109375 -11.476562 1.328125 -12.722656 1.765625 -13.890625 C 2.203125 -15.066406 2.828125 -16.085938 3.640625 -16.953125 C 4.460938 -17.828125 5.457031 -18.519531 6.625 -19.03125 C 7.800781 -19.539062 9.128906 -19.796875 10.609375 -19.796875 C 11.859375 -19.796875 13.007812 -19.597656 14.0625 -19.203125 C 15.113281 -18.804688 16.019531 -18.226562 16.78125 -17.46875 C 17.539062 -16.707031 18.128906 -15.773438 18.546875 -14.671875 C 18.972656 -13.578125 19.1875 -12.320312 19.1875 -10.90625 C 19.1875 -10.519531 19.164062 -10.195312 19.125 -9.9375 C 19.09375 -9.6875 19.03125 -9.484375 18.9375 -9.328125 C 18.851562 -9.179688 18.734375 -9.078125 18.578125 -9.015625 C 18.429688 -8.960938 18.238281 -8.9375 18 -8.9375 Z M 6.3125 -8.9375 "/></g></g></g><g fill="#321313" fill-opacity="1"><g transform="translate(334.817528, 86.519737)"><g><path d="M 7 -17.21875 C 7.382812 -17.601562 7.785156 -17.953125 8.203125 -18.265625 C 8.628906 -18.578125 9.078125 -18.847656 9.546875 -19.078125 C 10.023438 -19.304688 10.535156 -19.484375 11.078125 -19.609375 C 11.628906 -19.734375 12.226562 -19.796875 12.875 -19.796875 C 13.9375 -19.796875 14.875 -19.613281 15.6875 -19.25 C 16.507812 -18.882812 17.203125 -18.375 17.765625 -17.71875 C 18.328125 -17.0625 18.75 -16.28125 19.03125 -15.375 C 19.3125 -14.46875 19.453125 -13.472656 19.453125 -12.390625 L 19.453125 0 L 14.25 0 L 14.25 -12.390625 C 14.25 -13.472656 14 -14.3125 13.5 -14.90625 C 13 -15.507812 12.253906 -15.8125 11.265625 -15.8125 C 10.535156 -15.8125 9.847656 -15.648438 9.203125 -15.328125 C 8.566406 -15.015625 7.957031 -14.578125 7.375 -14.015625 L 7.375 0 L 2.15625 0 L 2.15625 -19.5 L 5.375 -19.5 C 6.03125 -19.5 6.460938 -19.191406 6.671875 -18.578125 Z M 7 -17.21875 "/></g></g></g></svg>