<svg xmlns="http://www.w3.org/2000/svg" xmlns:xlink="http://www.w3.org/1999/xlink" width="500" zoomAndPan="magnify" viewBox="0 0 375 374.999991" height="500" preserveAspectRatio="xMidYMid meet" version="1.0"><defs><g/></defs><path fill="#f4991a" d="M 190.671875 160.660156 C 190.710938 153.183594 190.753906 145.449219 190.792969 144.609375 C 190.835938 143.285156 190.925781 142.105469 190.996094 141.085938 C 201.5 138.855469 209.449219 128.304688 209.449219 115.621094 C 209.449219 101.328125 199.328125 73.277344 186.839844 73.277344 C 185.789062 73.277344 184.757812 73.488281 183.75 73.855469 L 183.722656 73.863281 C 183.382812 73.992188 183.042969 74.140625 182.714844 74.300781 L 182.652344 74.332031 C 182.324219 74.496094 182 74.675781 181.675781 74.878906 L 181.601562 74.917969 C 181.277344 75.117188 180.964844 75.328125 180.648438 75.5625 L 180.574219 75.613281 C 180.257812 75.855469 179.949219 76.101562 179.640625 76.367188 L 179.574219 76.425781 C 179.257812 76.695312 178.949219 76.976562 178.648438 77.277344 L 178.589844 77.335938 C 178.28125 77.636719 177.980469 77.953125 177.671875 78.28125 L 177.640625 78.320312 C 174.492188 81.800781 171.730469 86.726562 169.542969 92.09375 L 169.503906 92.175781 C 169.324219 92.632812 169.136719 93.09375 168.964844 93.550781 C 168.925781 93.65625 168.878906 93.761719 168.84375 93.867188 C 168.683594 94.28125 168.535156 94.695312 168.386719 95.113281 C 168.332031 95.265625 168.273438 95.421875 168.21875 95.574219 C 168.078125 95.964844 167.949219 96.347656 167.820312 96.738281 C 167.753906 96.925781 167.695312 97.105469 167.632812 97.292969 C 167.511719 97.652344 167.402344 98.023438 167.289062 98.382812 C 167.21875 98.601562 167.152344 98.8125 167.085938 99.027344 C 166.988281 99.367188 166.882812 99.710938 166.785156 100.050781 C 166.714844 100.285156 166.648438 100.515625 166.589844 100.757812 C 166.492188 101.082031 166.410156 101.402344 166.320312 101.71875 C 166.257812 101.972656 166.191406 102.230469 166.128906 102.476562 C 166.046875 102.785156 165.972656 103.09375 165.90625 103.394531 C 165.835938 103.65625 165.777344 103.921875 165.71875 104.183594 C 165.648438 104.476562 165.582031 104.761719 165.523438 105.054688 C 165.460938 105.324219 165.410156 105.597656 165.355469 105.867188 C 165.296875 106.144531 165.238281 106.421875 165.183594 106.695312 C 165.132812 106.972656 165.085938 107.25 165.035156 107.519531 C 164.988281 107.78125 164.945312 108.046875 164.898438 108.300781 C 164.851562 108.585938 164.808594 108.863281 164.769531 109.144531 C 164.734375 109.382812 164.695312 109.632812 164.65625 109.871094 C 164.621094 110.15625 164.589844 110.441406 164.550781 110.726562 C 164.523438 110.945312 164.492188 111.171875 164.46875 111.398438 C 164.441406 111.691406 164.410156 111.984375 164.386719 112.277344 C 164.371094 112.472656 164.351562 112.675781 164.335938 112.871094 C 164.3125 113.1875 164.296875 113.484375 164.28125 113.792969 C 164.265625 113.960938 164.257812 114.125 164.253906 114.28125 C 164.230469 114.742188 164.222656 115.183594 164.222656 115.621094 C 164.222656 116.347656 164.253906 117.078125 164.304688 117.792969 C 164.3125 117.882812 164.320312 117.980469 164.328125 118.070312 C 164.378906 118.753906 164.460938 119.421875 164.558594 120.089844 C 164.582031 120.203125 164.597656 120.308594 164.613281 120.421875 C 164.726562 121.089844 164.851562 121.746094 165.003906 122.382812 C 165.027344 122.472656 165.046875 122.554688 165.070312 122.644531 C 165.230469 123.316406 165.417969 123.984375 165.628906 124.628906 L 165.632812 124.644531 C 165.859375 125.335938 166.109375 126.019531 166.386719 126.679688 L 166.386719 126.695312 C 166.65625 127.355469 166.957031 127.988281 167.273438 128.613281 L 167.308594 128.695312 C 167.632812 129.320312 167.972656 129.925781 168.332031 130.511719 L 168.339844 130.519531 C 171.675781 135.945312 176.769531 139.832031 182.675781 141.085938 C 182.746094 142.105469 182.835938 143.289062 182.878906 144.609375 C 182.917969 145.453125 182.953125 153.183594 183 160.660156 C 164.679688 159.316406 149.019531 148.410156 140.988281 132.917969 C 144.671875 125.816406 146.746094 117.761719 146.746094 109.203125 C 146.746094 100.652344 144.671875 92.589844 140.988281 85.488281 C 149.578125 68.921875 166.882812 57.597656 186.832031 57.597656 C 207.148438 57.597656 224.726562 69.332031 233.140625 86.40625 C 229.769531 93.265625 227.875 100.984375 227.875 109.152344 C 227.875 117.332031 229.78125 125.074219 233.171875 131.949219 C 225.296875 147.953125 209.367188 159.285156 190.671875 160.660156 " fill-opacity="1" fill-rule="nonzero"/><path fill="#321313" d="M 98.96875 160.660156 C 99.015625 152.792969 99.0625 144.160156 99.097656 143.273438 C 99.148438 141.800781 99.257812 140.507812 99.324219 139.417969 C 106.738281 136.703125 112.246094 127.003906 112.359375 115.378906 L 112.335938 115.378906 C 112.335938 115.191406 112.351562 115.003906 112.335938 114.808594 C 111.292969 102.15625 110.226562 89.480469 109.167969 76.832031 C 108.972656 74.398438 108.300781 72.453125 107.679688 72.453125 C 107.054688 72.464844 106.476562 74.449219 106.378906 76.890625 C 105.890625 89.578125 105.402344 102.273438 104.914062 114.972656 C 104.90625 115.117188 104.929688 115.246094 104.9375 115.378906 L 103.335938 115.378906 C 103.34375 115.222656 103.367188 115.078125 103.359375 114.914062 C 102.632812 102.222656 101.914062 89.539062 101.191406 76.863281 C 101.058594 74.421875 100.433594 72.453125 99.816406 72.445312 C 99.195312 72.445312 98.566406 74.40625 98.410156 76.847656 C 97.578125 89.515625 96.753906 102.199219 95.917969 114.882812 C 95.90625 115.054688 95.925781 115.214844 95.933594 115.378906 L 94.339844 115.378906 C 94.347656 115.230469 94.363281 115.085938 94.359375 114.9375 C 93.703125 102.238281 93.039062 89.546875 92.375 76.863281 C 92.25 74.429688 91.636719 72.453125 91.019531 72.445312 L 91.015625 72.445312 C 90.394531 72.445312 89.761719 74.40625 89.589844 76.847656 C 88.703125 89.507812 87.816406 102.191406 86.925781 114.867188 C 86.914062 115.042969 86.929688 115.214844 86.9375 115.378906 L 85.34375 115.378906 C 85.347656 115.246094 85.367188 115.117188 85.367188 114.972656 C 84.90625 103.199219 84.457031 91.425781 84.003906 79.65625 L 84.003906 79.648438 C 83.964844 78.734375 83.933594 77.808594 83.894531 76.890625 C 83.796875 74.449219 83.21875 72.464844 82.597656 72.453125 L 82.589844 72.453125 C 81.976562 72.453125 81.308594 74.398438 81.109375 76.832031 C 80.050781 89.480469 78.984375 102.15625 77.9375 114.808594 C 77.921875 115.003906 77.933594 115.191406 77.941406 115.378906 L 77.917969 115.378906 C 77.929688 116.183594 77.964844 116.972656 78.023438 117.746094 C 78.042969 118.003906 78.070312 118.257812 78.09375 118.511719 C 78.144531 119.023438 78.203125 119.542969 78.269531 120.046875 C 78.3125 120.355469 78.363281 120.648438 78.410156 120.941406 C 78.484375 121.382812 78.566406 121.835938 78.65625 122.269531 C 78.71875 122.585938 78.785156 122.894531 78.863281 123.203125 C 78.957031 123.609375 79.0625 124.007812 79.167969 124.398438 C 79.257812 124.71875 79.34375 125.035156 79.441406 125.34375 C 79.546875 125.703125 79.671875 126.050781 79.796875 126.402344 C 79.910156 126.726562 80.015625 127.054688 80.136719 127.378906 L 80.171875 127.460938 C 80.574219 128.484375 81.027344 129.453125 81.519531 130.378906 C 81.59375 130.519531 81.664062 130.671875 81.738281 130.804688 C 81.96875 131.21875 82.214844 131.625 82.460938 132.015625 C 82.539062 132.144531 82.617188 132.265625 82.699219 132.390625 C 82.960938 132.796875 83.234375 133.179688 83.515625 133.5625 C 83.582031 133.644531 83.644531 133.730469 83.703125 133.8125 C 84.019531 134.210938 84.335938 134.601562 84.664062 134.976562 L 84.6875 135 C 86.523438 137.050781 88.644531 138.566406 90.957031 139.417969 C 91 140.132812 91.0625 140.933594 91.117188 141.8125 C 91.121094 141.925781 91.128906 142.039062 91.136719 142.152344 C 91.15625 142.511719 91.175781 142.882812 91.1875 143.273438 C 91.222656 144.160156 91.269531 152.792969 91.3125 160.660156 C 64.597656 158.699219 43.53125 136.417969 43.53125 109.203125 C 43.53125 80.703125 66.636719 57.597656 95.136719 57.597656 C 115.085938 57.597656 132.398438 68.921875 140.988281 85.488281 C 137.304688 92.589844 135.226562 100.652344 135.226562 109.203125 C 135.226562 117.753906 137.304688 125.816406 140.988281 132.917969 C 132.949219 148.410156 117.289062 159.316406 98.96875 160.660156 " fill-opacity="1" fill-rule="nonzero"/><path fill="#321313" d="M 140.988281 132.917969 C 137.304688 125.816406 135.226562 117.753906 135.226562 109.203125 C 135.226562 100.652344 137.304688 92.589844 140.988281 85.488281 C 144.671875 92.589844 146.746094 100.652344 146.746094 109.203125 C 146.746094 117.761719 144.671875 125.816406 140.988281 132.917969 " fill-opacity="1" fill-rule="nonzero"/><path fill="#f2ead3" d="M 281.019531 160.71875 C 281.007812 157.796875 281.035156 155.0625 281.113281 152.640625 C 281.117188 152.304688 281.125 151.042969 281.140625 149.296875 L 283.472656 149.296875 C 286.445312 149.296875 288.859375 146.894531 288.859375 143.917969 C 288.859375 143.917969 288.886719 69.597656 280.246094 69.597656 C 279.359375 69.597656 278.519531 69.84375 277.769531 70.25 C 277.167969 70.574219 276.632812 70.992188 276.191406 71.511719 L 276.039062 71.691406 C 275.917969 71.835938 275.8125 71.976562 275.707031 72.136719 C 275.574219 72.355469 275.445312 72.578125 275.332031 72.820312 C 275.296875 72.902344 275.265625 73 275.234375 73.089844 C 275.144531 73.300781 275.078125 73.519531 275.023438 73.738281 C 275.003906 73.835938 274.980469 73.925781 274.964844 74.023438 C 274.90625 74.335938 274.859375 74.644531 274.859375 74.984375 C 274.859375 74.984375 274.988281 151.898438 275.003906 152.640625 C 275.070312 155.023438 275.101562 157.699219 275.09375 160.5625 C 256.660156 159.007812 240.980469 147.765625 233.171875 131.949219 C 236.546875 125.089844 238.445312 117.371094 238.445312 109.203125 C 238.445312 101.019531 236.539062 93.28125 233.140625 86.40625 C 241.558594 69.3125 259.148438 57.542969 279.480469 57.542969 C 307.988281 57.542969 331.09375 80.648438 331.09375 109.152344 C 331.09375 137.140625 308.808594 159.910156 281.019531 160.71875 " fill-opacity="1" fill-rule="nonzero"/><path fill="#f4991a" d="M 233.171875 131.949219 C 229.78125 125.074219 227.875 117.332031 227.875 109.152344 C 227.875 100.984375 229.769531 93.265625 233.140625 86.40625 C 236.539062 93.28125 238.445312 101.019531 238.445312 109.203125 C 238.445312 117.371094 236.546875 125.089844 233.171875 131.949219 " fill-opacity="1" fill-rule="nonzero"/><g fill="#ffffff" fill-opacity="1"><g transform="translate(93.192456, 280.540294)"><g><path d="M 1.921875 -2.96875 L 1.921875 0 L 0.96875 0 L 0.96875 -7.125 L 2.96875 -7.125 C 3.425781 -7.125 3.816406 -7.078125 4.140625 -6.984375 C 4.472656 -6.890625 4.742188 -6.753906 4.953125 -6.578125 C 5.171875 -6.410156 5.328125 -6.203125 5.421875 -5.953125 C 5.523438 -5.710938 5.578125 -5.441406 5.578125 -5.140625 C 5.578125 -4.890625 5.535156 -4.65625 5.453125 -4.4375 C 5.378906 -4.21875 5.265625 -4.019531 5.109375 -3.84375 C 4.960938 -3.675781 4.78125 -3.53125 4.5625 -3.40625 C 4.351562 -3.28125 4.109375 -3.1875 3.828125 -3.125 C 3.953125 -3.0625 4.0625 -2.960938 4.15625 -2.828125 L 6.21875 0 L 5.375 0 C 5.195312 0 5.066406 -0.0664062 4.984375 -0.203125 L 3.140625 -2.75 C 3.078125 -2.820312 3.015625 -2.875 2.953125 -2.90625 C 2.890625 -2.945312 2.789062 -2.96875 2.65625 -2.96875 Z M 1.921875 -3.671875 L 2.9375 -3.671875 C 3.21875 -3.671875 3.460938 -3.703125 3.671875 -3.765625 C 3.890625 -3.835938 4.066406 -3.9375 4.203125 -4.0625 C 4.347656 -4.1875 4.457031 -4.332031 4.53125 -4.5 C 4.601562 -4.675781 4.640625 -4.867188 4.640625 -5.078125 C 4.640625 -5.503906 4.5 -5.820312 4.21875 -6.03125 C 3.945312 -6.25 3.53125 -6.359375 2.96875 -6.359375 L 1.921875 -6.359375 Z M 1.921875 -3.671875 "/></g></g></g><g fill="#ffffff" fill-opacity="1"><g transform="translate(104.759842, 280.540294)"><g><path d="M 5.25 -7.125 L 5.25 -6.328125 L 1.828125 -6.328125 L 1.828125 -3.96875 L 4.59375 -3.96875 L 4.59375 -3.21875 L 1.828125 -3.21875 L 1.828125 -0.78125 L 5.25 -0.78125 L 5.25 0 L 0.859375 0 L 0.859375 -7.125 Z M 5.25 -7.125 "/></g></g></g><g fill="#ffffff" fill-opacity="1"><g transform="translate(115.701179, 280.540294)"><g><path d="M 0.046875 -7.125 L 0.8125 -7.125 C 0.894531 -7.125 0.960938 -7.097656 1.015625 -7.046875 C 1.066406 -7.003906 1.109375 -6.953125 1.140625 -6.890625 L 3.15625 -1.875 C 3.195312 -1.757812 3.234375 -1.632812 3.265625 -1.5 C 3.304688 -1.363281 3.347656 -1.226562 3.390625 -1.09375 C 3.421875 -1.226562 3.453125 -1.363281 3.484375 -1.5 C 3.515625 -1.632812 3.554688 -1.757812 3.609375 -1.875 L 5.609375 -6.890625 C 5.628906 -6.941406 5.664062 -6.992188 5.71875 -7.046875 C 5.78125 -7.097656 5.851562 -7.125 5.9375 -7.125 L 6.71875 -7.125 L 3.8125 0 L 2.9375 0 Z M 0.046875 -7.125 "/></g></g></g><g fill="#ffffff" fill-opacity="1"><g transform="translate(127.626318, 280.540294)"><g><path d="M 2 0 L 1.046875 0 L 1.046875 -7.125 L 2 -7.125 Z M 2 0 "/></g></g></g><g fill="#ffffff" fill-opacity="1"><g transform="translate(135.844809, 280.540294)"><g><path d="M 5.25 -7.125 L 5.25 -6.328125 L 1.828125 -6.328125 L 1.828125 -3.96875 L 4.59375 -3.96875 L 4.59375 -3.21875 L 1.828125 -3.21875 L 1.828125 -0.78125 L 5.25 -0.78125 L 5.25 0 L 0.859375 0 L 0.859375 -7.125 Z M 5.25 -7.125 "/></g></g></g><g fill="#ffffff" fill-opacity="1"><g transform="translate(146.786147, 280.540294)"><g><path d="M 0.0625 -7.125 L 0.875 -7.125 C 0.957031 -7.125 1.023438 -7.097656 1.078125 -7.046875 C 1.140625 -7.003906 1.179688 -6.953125 1.203125 -6.890625 L 2.671875 -1.9375 C 2.691406 -1.851562 2.710938 -1.757812 2.734375 -1.65625 C 2.753906 -1.550781 2.773438 -1.441406 2.796875 -1.328125 C 2.828125 -1.441406 2.851562 -1.550781 2.875 -1.65625 C 2.894531 -1.757812 2.921875 -1.851562 2.953125 -1.9375 L 4.625 -6.890625 C 4.644531 -6.941406 4.679688 -6.992188 4.734375 -7.046875 C 4.796875 -7.097656 4.867188 -7.125 4.953125 -7.125 L 5.234375 -7.125 C 5.316406 -7.125 5.382812 -7.097656 5.4375 -7.046875 C 5.5 -7.003906 5.539062 -6.953125 5.5625 -6.890625 L 7.21875 -1.9375 C 7.28125 -1.769531 7.335938 -1.570312 7.390625 -1.34375 C 7.398438 -1.457031 7.414062 -1.5625 7.4375 -1.65625 C 7.457031 -1.757812 7.476562 -1.851562 7.5 -1.9375 L 8.984375 -6.890625 C 8.992188 -6.953125 9.023438 -7.003906 9.078125 -7.046875 C 9.140625 -7.097656 9.210938 -7.125 9.296875 -7.125 L 10.046875 -7.125 L 7.828125 0 L 6.96875 0 L 5.15625 -5.4375 C 5.125 -5.53125 5.09375 -5.644531 5.0625 -5.78125 C 5.039062 -5.71875 5.023438 -5.65625 5.015625 -5.59375 C 5.003906 -5.53125 4.988281 -5.476562 4.96875 -5.4375 L 3.15625 0 L 2.296875 0 Z M 0.0625 -7.125 "/></g></g></g><g fill="#ffffff" fill-opacity="1"><g transform="translate(162.080059, 280.540294)"><g><path d="M 4.515625 -6 C 4.484375 -5.957031 4.453125 -5.921875 4.421875 -5.890625 C 4.390625 -5.867188 4.34375 -5.859375 4.28125 -5.859375 C 4.226562 -5.859375 4.164062 -5.882812 4.09375 -5.9375 C 4.019531 -6 3.925781 -6.0625 3.8125 -6.125 C 3.695312 -6.195312 3.554688 -6.257812 3.390625 -6.3125 C 3.234375 -6.375 3.039062 -6.40625 2.8125 -6.40625 C 2.59375 -6.40625 2.398438 -6.375 2.234375 -6.3125 C 2.078125 -6.25 1.941406 -6.164062 1.828125 -6.0625 C 1.710938 -5.96875 1.625 -5.851562 1.5625 -5.71875 C 1.507812 -5.59375 1.484375 -5.453125 1.484375 -5.296875 C 1.484375 -5.097656 1.53125 -4.929688 1.625 -4.796875 C 1.726562 -4.660156 1.859375 -4.546875 2.015625 -4.453125 C 2.179688 -4.367188 2.363281 -4.289062 2.5625 -4.21875 C 2.769531 -4.15625 2.976562 -4.085938 3.1875 -4.015625 C 3.40625 -3.941406 3.613281 -3.859375 3.8125 -3.765625 C 4.019531 -3.671875 4.203125 -3.550781 4.359375 -3.40625 C 4.523438 -3.269531 4.65625 -3.101562 4.75 -2.90625 C 4.851562 -2.707031 4.90625 -2.457031 4.90625 -2.15625 C 4.90625 -1.84375 4.851562 -1.550781 4.75 -1.28125 C 4.644531 -1.007812 4.488281 -0.769531 4.28125 -0.5625 C 4.070312 -0.363281 3.816406 -0.207031 3.515625 -0.09375 C 3.222656 0.0195312 2.890625 0.078125 2.515625 0.078125 C 2.054688 0.078125 1.632812 -0.00390625 1.25 -0.171875 C 0.875 -0.335938 0.550781 -0.5625 0.28125 -0.84375 L 0.5625 -1.3125 C 0.59375 -1.34375 0.625 -1.367188 0.65625 -1.390625 C 0.695312 -1.421875 0.742188 -1.4375 0.796875 -1.4375 C 0.859375 -1.4375 0.929688 -1.398438 1.015625 -1.328125 C 1.109375 -1.253906 1.222656 -1.171875 1.359375 -1.078125 C 1.492188 -0.984375 1.65625 -0.898438 1.84375 -0.828125 C 2.039062 -0.753906 2.273438 -0.71875 2.546875 -0.71875 C 2.773438 -0.71875 2.976562 -0.75 3.15625 -0.8125 C 3.332031 -0.875 3.484375 -0.960938 3.609375 -1.078125 C 3.734375 -1.191406 3.828125 -1.328125 3.890625 -1.484375 C 3.960938 -1.648438 4 -1.828125 4 -2.015625 C 4 -2.234375 3.945312 -2.410156 3.84375 -2.546875 C 3.75 -2.679688 3.625 -2.796875 3.46875 -2.890625 C 3.3125 -2.984375 3.128906 -3.0625 2.921875 -3.125 C 2.722656 -3.195312 2.515625 -3.265625 2.296875 -3.328125 C 2.085938 -3.398438 1.878906 -3.476562 1.671875 -3.5625 C 1.460938 -3.65625 1.28125 -3.769531 1.125 -3.90625 C 0.96875 -4.050781 0.835938 -4.226562 0.734375 -4.4375 C 0.640625 -4.65625 0.59375 -4.921875 0.59375 -5.234375 C 0.59375 -5.492188 0.640625 -5.738281 0.734375 -5.96875 C 0.835938 -6.207031 0.984375 -6.414062 1.171875 -6.59375 C 1.359375 -6.78125 1.585938 -6.925781 1.859375 -7.03125 C 2.128906 -7.144531 2.441406 -7.203125 2.796875 -7.203125 C 3.191406 -7.203125 3.550781 -7.140625 3.875 -7.015625 C 4.207031 -6.890625 4.5 -6.707031 4.75 -6.46875 Z M 4.515625 -6 "/></g></g></g><g fill="#ffffff" fill-opacity="1"><g transform="translate(172.514581, 280.540294)"><g/></g></g><g fill="#ffffff" fill-opacity="1"><g transform="translate(179.600196, 280.540294)"><g><path d="M 7.03125 -3.5625 C 7.03125 -3.019531 6.945312 -2.53125 6.78125 -2.09375 C 6.613281 -1.664062 6.375 -1.296875 6.0625 -0.984375 C 5.757812 -0.671875 5.390625 -0.425781 4.953125 -0.25 C 4.523438 -0.0820312 4.050781 0 3.53125 0 L 0.859375 0 L 0.859375 -7.125 L 3.53125 -7.125 C 4.050781 -7.125 4.523438 -7.035156 4.953125 -6.859375 C 5.390625 -6.691406 5.757812 -6.453125 6.0625 -6.140625 C 6.375 -5.828125 6.613281 -5.453125 6.78125 -5.015625 C 6.945312 -4.578125 7.03125 -4.09375 7.03125 -3.5625 Z M 6.046875 -3.5625 C 6.046875 -4 5.984375 -4.390625 5.859375 -4.734375 C 5.742188 -5.078125 5.578125 -5.367188 5.359375 -5.609375 C 5.140625 -5.847656 4.875 -6.03125 4.5625 -6.15625 C 4.25 -6.28125 3.90625 -6.34375 3.53125 -6.34375 L 1.828125 -6.34375 L 1.828125 -0.78125 L 3.53125 -0.78125 C 3.90625 -0.78125 4.25 -0.84375 4.5625 -0.96875 C 4.875 -1.09375 5.140625 -1.273438 5.359375 -1.515625 C 5.578125 -1.753906 5.742188 -2.046875 5.859375 -2.390625 C 5.984375 -2.734375 6.046875 -3.125 6.046875 -3.5625 Z M 6.046875 -3.5625 "/></g></g></g><g fill="#ffffff" fill-opacity="1"><g transform="translate(192.250769, 280.540294)"><g><path d="M 5.25 -7.125 L 5.25 -6.328125 L 1.828125 -6.328125 L 1.828125 -3.96875 L 4.59375 -3.96875 L 4.59375 -3.21875 L 1.828125 -3.21875 L 1.828125 -0.78125 L 5.25 -0.78125 L 5.25 0 L 0.859375 0 L 0.859375 -7.125 Z M 5.25 -7.125 "/></g></g></g><g fill="#ffffff" fill-opacity="1"><g transform="translate(203.19211, 280.540294)"><g/></g></g><g fill="#ffffff" fill-opacity="1"><g transform="translate(210.27773, 280.540294)"><g><path d="M 2 0 L 1.046875 0 L 1.046875 -7.125 L 2 -7.125 Z M 2 0 "/></g></g></g><g fill="#ffffff" fill-opacity="1"><g transform="translate(218.496224, 280.540294)"><g><path d="M 5.71875 -7.125 L 5.71875 -6.3125 L 3.40625 -6.3125 L 3.40625 0 L 2.453125 0 L 2.453125 -6.3125 L 0.140625 -6.3125 L 0.140625 -7.125 Z M 5.71875 -7.125 "/></g></g></g><g fill="#ffffff" fill-opacity="1"><g transform="translate(229.527, 280.540294)"><g><path d="M 6.71875 0 L 5.984375 0 C 5.890625 0 5.816406 -0.0195312 5.765625 -0.0625 C 5.710938 -0.101562 5.675781 -0.160156 5.65625 -0.234375 L 4.984375 -1.953125 L 1.78125 -1.953125 L 1.125 -0.234375 C 1.101562 -0.171875 1.0625 -0.113281 1 -0.0625 C 0.945312 -0.0195312 0.878906 0 0.796875 0 L 0.046875 0 L 2.890625 -7.125 L 3.875 -7.125 Z M 2.0625 -2.640625 L 4.71875 -2.640625 L 3.59375 -5.546875 C 3.519531 -5.722656 3.453125 -5.941406 3.390625 -6.203125 C 3.347656 -6.066406 3.304688 -5.941406 3.265625 -5.828125 C 3.234375 -5.722656 3.203125 -5.625 3.171875 -5.53125 Z M 2.0625 -2.640625 "/></g></g></g><g fill="#ffffff" fill-opacity="1"><g transform="translate(241.452144, 280.540294)"><g><path d="M 3.546875 -2.453125 C 3.546875 -2.054688 3.492188 -1.703125 3.390625 -1.390625 C 3.296875 -1.078125 3.148438 -0.8125 2.953125 -0.59375 C 2.765625 -0.375 2.53125 -0.207031 2.25 -0.09375 C 1.976562 0.0195312 1.660156 0.078125 1.296875 0.078125 C 0.972656 0.078125 0.640625 0.03125 0.296875 -0.0625 C 0.304688 -0.15625 0.316406 -0.25 0.328125 -0.34375 C 0.335938 -0.4375 0.347656 -0.53125 0.359375 -0.625 C 0.359375 -0.675781 0.375 -0.71875 0.40625 -0.75 C 0.445312 -0.789062 0.503906 -0.8125 0.578125 -0.8125 C 0.628906 -0.8125 0.703125 -0.796875 0.796875 -0.765625 C 0.898438 -0.734375 1.035156 -0.71875 1.203125 -0.71875 C 1.421875 -0.71875 1.613281 -0.75 1.78125 -0.8125 C 1.957031 -0.882812 2.101562 -0.988281 2.21875 -1.125 C 2.34375 -1.269531 2.429688 -1.453125 2.484375 -1.671875 C 2.546875 -1.890625 2.578125 -2.144531 2.578125 -2.4375 L 2.578125 -7.125 L 3.546875 -7.125 Z M 3.546875 -2.453125 "/></g></g></g><g fill="#ffffff" fill-opacity="1"><g transform="translate(251.032061, 280.540294)"><g><path d="M 3.625 -0.765625 C 3.925781 -0.765625 4.191406 -0.8125 4.421875 -0.90625 C 4.648438 -1.007812 4.84375 -1.148438 5 -1.328125 C 5.164062 -1.503906 5.289062 -1.71875 5.375 -1.96875 C 5.457031 -2.21875 5.5 -2.492188 5.5 -2.796875 L 5.5 -7.125 L 6.46875 -7.125 L 6.46875 -2.796875 C 6.46875 -2.378906 6.398438 -1.992188 6.265625 -1.640625 C 6.140625 -1.296875 5.953125 -0.992188 5.703125 -0.734375 C 5.460938 -0.484375 5.164062 -0.285156 4.8125 -0.140625 C 4.457031 0.00390625 4.0625 0.078125 3.625 0.078125 C 3.1875 0.078125 2.789062 0.00390625 2.4375 -0.140625 C 2.09375 -0.285156 1.796875 -0.484375 1.546875 -0.734375 C 1.304688 -0.992188 1.117188 -1.296875 0.984375 -1.640625 C 0.859375 -1.992188 0.796875 -2.378906 0.796875 -2.796875 L 0.796875 -7.125 L 1.75 -7.125 L 1.75 -2.796875 C 1.75 -2.492188 1.789062 -2.21875 1.875 -1.96875 C 1.957031 -1.726562 2.078125 -1.515625 2.234375 -1.328125 C 2.398438 -1.148438 2.597656 -1.007812 2.828125 -0.90625 C 3.066406 -0.8125 3.332031 -0.765625 3.625 -0.765625 Z M 3.625 -0.765625 "/></g></g></g><g fill="#ffffff" fill-opacity="1"><g transform="translate(263.454072, 280.540294)"><g><path d="M 0.859375 0 L 0.859375 -7.125 L 3.140625 -7.125 C 3.578125 -7.125 3.953125 -7.078125 4.265625 -6.984375 C 4.578125 -6.898438 4.832031 -6.78125 5.03125 -6.625 C 5.238281 -6.46875 5.390625 -6.269531 5.484375 -6.03125 C 5.585938 -5.800781 5.640625 -5.546875 5.640625 -5.265625 C 5.640625 -5.085938 5.613281 -4.914062 5.5625 -4.75 C 5.507812 -4.59375 5.425781 -4.441406 5.3125 -4.296875 C 5.195312 -4.160156 5.054688 -4.035156 4.890625 -3.921875 C 4.722656 -3.816406 4.53125 -3.726562 4.3125 -3.65625 C 4.832031 -3.5625 5.222656 -3.375 5.484375 -3.09375 C 5.753906 -2.820312 5.890625 -2.46875 5.890625 -2.03125 C 5.890625 -1.726562 5.832031 -1.453125 5.71875 -1.203125 C 5.601562 -0.953125 5.4375 -0.738281 5.21875 -0.5625 C 5.007812 -0.382812 4.75 -0.242188 4.4375 -0.140625 C 4.132812 -0.046875 3.785156 0 3.390625 0 Z M 1.828125 -3.25 L 1.828125 -0.765625 L 3.375 -0.765625 C 3.644531 -0.765625 3.878906 -0.796875 4.078125 -0.859375 C 4.273438 -0.921875 4.4375 -1.007812 4.5625 -1.125 C 4.6875 -1.238281 4.78125 -1.375 4.84375 -1.53125 C 4.90625 -1.6875 4.9375 -1.859375 4.9375 -2.046875 C 4.9375 -2.421875 4.804688 -2.710938 4.546875 -2.921875 C 4.285156 -3.140625 3.890625 -3.25 3.359375 -3.25 Z M 1.828125 -3.9375 L 3.09375 -3.9375 C 3.375 -3.9375 3.613281 -3.960938 3.8125 -4.015625 C 4.007812 -4.078125 4.171875 -4.160156 4.296875 -4.265625 C 4.429688 -4.367188 4.53125 -4.492188 4.59375 -4.640625 C 4.65625 -4.796875 4.6875 -4.960938 4.6875 -5.140625 C 4.6875 -5.566406 4.5625 -5.875 4.3125 -6.0625 C 4.0625 -6.257812 3.671875 -6.359375 3.140625 -6.359375 L 1.828125 -6.359375 Z M 1.828125 -3.9375 "/></g></g></g><g fill="#ffffff" fill-opacity="1"><g transform="translate(275.051274, 280.540294)"><g><path d="M 6.71875 0 L 5.984375 0 C 5.890625 0 5.816406 -0.0195312 5.765625 -0.0625 C 5.710938 -0.101562 5.675781 -0.160156 5.65625 -0.234375 L 4.984375 -1.953125 L 1.78125 -1.953125 L 1.125 -0.234375 C 1.101562 -0.171875 1.0625 -0.113281 1 -0.0625 C 0.945312 -0.0195312 0.878906 0 0.796875 0 L 0.046875 0 L 2.890625 -7.125 L 3.875 -7.125 Z M 2.0625 -2.640625 L 4.71875 -2.640625 L 3.59375 -5.546875 C 3.519531 -5.722656 3.453125 -5.941406 3.390625 -6.203125 C 3.347656 -6.066406 3.304688 -5.941406 3.265625 -5.828125 C 3.234375 -5.722656 3.203125 -5.625 3.171875 -5.53125 Z M 5.0625 -8.859375 L 3.609375 -7.78125 C 3.546875 -7.738281 3.492188 -7.710938 3.453125 -7.703125 C 3.410156 -7.691406 3.351562 -7.6875 3.28125 -7.6875 L 2.609375 -7.6875 L 3.65625 -8.6875 C 3.6875 -8.71875 3.710938 -8.742188 3.734375 -8.765625 C 3.765625 -8.785156 3.796875 -8.800781 3.828125 -8.8125 C 3.859375 -8.832031 3.890625 -8.84375 3.921875 -8.84375 C 3.960938 -8.851562 4.007812 -8.859375 4.0625 -8.859375 Z M 5.0625 -8.859375 "/></g></g></g><g fill="#ffffff" fill-opacity="1"><g transform="translate(184.356338, 199.309493)"><g><path d="M 7.125 0 L 2.390625 0 L 2.390625 -22.765625 L 7.125 -22.765625 Z M 7.125 0 "/></g></g></g><g fill="#ffffff" fill-opacity="1"><g transform="translate(193.86287, 199.309493)"><g><path d="M 7.375 0.25 C 6.644531 0.25 5.992188 0.144531 5.421875 -0.0625 C 4.859375 -0.28125 4.382812 -0.585938 4 -0.984375 C 3.613281 -1.378906 3.320312 -1.859375 3.125 -2.421875 C 2.925781 -2.992188 2.828125 -3.632812 2.828125 -4.34375 L 2.828125 -13.0625 L 1.296875 -13.0625 C 1.066406 -13.0625 0.867188 -13.132812 0.703125 -13.28125 C 0.546875 -13.425781 0.46875 -13.648438 0.46875 -13.953125 L 0.46875 -15.640625 L 3.0625 -16.109375 L 3.9375 -20.296875 C 4.050781 -20.765625 4.367188 -21 4.890625 -21 L 7.15625 -21 L 7.15625 -16.078125 L 11.328125 -16.078125 L 11.328125 -13.0625 L 7.15625 -13.0625 L 7.15625 -4.625 C 7.15625 -4.175781 7.257812 -3.820312 7.46875 -3.5625 C 7.6875 -3.300781 7.992188 -3.171875 8.390625 -3.171875 C 8.597656 -3.171875 8.773438 -3.191406 8.921875 -3.234375 C 9.066406 -3.285156 9.191406 -3.335938 9.296875 -3.390625 C 9.398438 -3.453125 9.492188 -3.503906 9.578125 -3.546875 C 9.671875 -3.597656 9.769531 -3.625 9.875 -3.625 C 10 -3.625 10.101562 -3.59375 10.1875 -3.53125 C 10.269531 -3.476562 10.351562 -3.382812 10.4375 -3.25 L 11.734375 -1.171875 C 11.140625 -0.703125 10.460938 -0.347656 9.703125 -0.109375 C 8.953125 0.128906 8.175781 0.25 7.375 0.25 Z M 7.375 0.25 "/></g></g></g><g fill="#ffffff" fill-opacity="1"><g transform="translate(205.706816, 199.309493)"><g><path d="M 10.25 -6.765625 C 9.1875 -6.710938 8.304688 -6.617188 7.609375 -6.484375 C 6.910156 -6.359375 6.351562 -6.1875 5.9375 -5.96875 C 5.519531 -5.757812 5.222656 -5.519531 5.046875 -5.25 C 4.878906 -4.988281 4.796875 -4.703125 4.796875 -4.390625 C 4.796875 -3.765625 4.96875 -3.320312 5.3125 -3.0625 C 5.664062 -2.800781 6.160156 -2.671875 6.796875 -2.671875 C 7.515625 -2.671875 8.132812 -2.796875 8.65625 -3.046875 C 9.1875 -3.304688 9.71875 -3.707031 10.25 -4.25 Z M 1.421875 -13.9375 C 2.378906 -14.789062 3.429688 -15.425781 4.578125 -15.84375 C 5.734375 -16.269531 6.976562 -16.484375 8.3125 -16.484375 C 9.269531 -16.484375 10.128906 -16.328125 10.890625 -16.015625 C 11.648438 -15.703125 12.289062 -15.265625 12.8125 -14.703125 C 13.34375 -14.148438 13.75 -13.484375 14.03125 -12.703125 C 14.320312 -11.929688 14.46875 -11.085938 14.46875 -10.171875 L 14.46875 0 L 12.484375 0 C 12.078125 0 11.765625 -0.0546875 11.546875 -0.171875 C 11.335938 -0.285156 11.164062 -0.523438 11.03125 -0.890625 L 10.6875 -1.921875 C 10.28125 -1.566406 9.882812 -1.253906 9.5 -0.984375 C 9.113281 -0.710938 8.71875 -0.484375 8.3125 -0.296875 C 7.90625 -0.117188 7.46875 0.015625 7 0.109375 C 6.539062 0.203125 6.019531 0.25 5.4375 0.25 C 4.726562 0.25 4.082031 0.15625 3.5 -0.03125 C 2.914062 -0.21875 2.410156 -0.492188 1.984375 -0.859375 C 1.554688 -1.234375 1.226562 -1.695312 1 -2.25 C 0.769531 -2.8125 0.65625 -3.453125 0.65625 -4.171875 C 0.65625 -4.765625 0.804688 -5.359375 1.109375 -5.953125 C 1.410156 -6.554688 1.929688 -7.097656 2.671875 -7.578125 C 3.410156 -8.066406 4.394531 -8.46875 5.625 -8.78125 C 6.851562 -9.101562 8.394531 -9.285156 10.25 -9.328125 L 10.25 -10.171875 C 10.25 -11.179688 10.03125 -11.921875 9.59375 -12.390625 C 9.164062 -12.867188 8.550781 -13.109375 7.75 -13.109375 C 7.15625 -13.109375 6.65625 -13.035156 6.25 -12.890625 C 5.851562 -12.753906 5.503906 -12.601562 5.203125 -12.4375 C 4.910156 -12.28125 4.632812 -12.128906 4.375 -11.984375 C 4.113281 -11.847656 3.8125 -11.78125 3.46875 -11.78125 C 3.164062 -11.78125 2.910156 -11.851562 2.703125 -12 C 2.503906 -12.15625 2.335938 -12.335938 2.203125 -12.546875 Z M 1.421875 -13.9375 "/></g></g></g><g fill="#ffffff" fill-opacity="1"><g transform="translate(221.770659, 199.309493)"><g><path d="M 7.09375 -13.359375 L 8.015625 -13.359375 C 8.785156 -13.359375 9.34375 -13.601562 9.6875 -14.09375 L 15.453125 -21.796875 C 15.722656 -22.160156 16.019531 -22.410156 16.34375 -22.546875 C 16.664062 -22.691406 17.0625 -22.765625 17.53125 -22.765625 L 21.625 -22.765625 L 14.375 -13.421875 C 13.894531 -12.816406 13.40625 -12.382812 12.90625 -12.125 C 13.269531 -11.976562 13.597656 -11.785156 13.890625 -11.546875 C 14.191406 -11.316406 14.476562 -11.007812 14.75 -10.625 L 22.1875 0 L 18 0 C 17.71875 0 17.476562 -0.0195312 17.28125 -0.0625 C 17.09375 -0.101562 16.925781 -0.160156 16.78125 -0.234375 C 16.632812 -0.304688 16.507812 -0.394531 16.40625 -0.5 C 16.300781 -0.613281 16.203125 -0.742188 16.109375 -0.890625 L 10.265625 -9.078125 C 10.066406 -9.359375 9.828125 -9.5625 9.546875 -9.6875 C 9.273438 -9.8125 8.894531 -9.875 8.40625 -9.875 L 7.09375 -9.875 L 7.09375 0 L 2.390625 0 L 2.390625 -22.765625 L 7.09375 -22.765625 Z M 7.09375 -13.359375 "/></g></g></g><g fill="#ffffff" fill-opacity="1"><g transform="translate(243.576072, 199.309493)"><g><path d="M 6.25 -16.171875 L 6.25 0 L 1.90625 0 L 1.90625 -16.171875 Z M 6.765625 -20.765625 C 6.765625 -20.398438 6.691406 -20.0625 6.546875 -19.75 C 6.398438 -19.4375 6.203125 -19.160156 5.953125 -18.921875 C 5.703125 -18.679688 5.410156 -18.492188 5.078125 -18.359375 C 4.753906 -18.222656 4.40625 -18.15625 4.03125 -18.15625 C 3.675781 -18.15625 3.335938 -18.222656 3.015625 -18.359375 C 2.703125 -18.492188 2.421875 -18.679688 2.171875 -18.921875 C 1.929688 -19.160156 1.738281 -19.4375 1.59375 -19.75 C 1.457031 -20.0625 1.390625 -20.398438 1.390625 -20.765625 C 1.390625 -21.128906 1.457031 -21.472656 1.59375 -21.796875 C 1.738281 -22.117188 1.929688 -22.398438 2.171875 -22.640625 C 2.421875 -22.878906 2.703125 -23.066406 3.015625 -23.203125 C 3.335938 -23.335938 3.675781 -23.40625 4.03125 -23.40625 C 4.40625 -23.40625 4.753906 -23.335938 5.078125 -23.203125 C 5.410156 -23.066406 5.703125 -22.878906 5.953125 -22.640625 C 6.203125 -22.398438 6.398438 -22.117188 6.546875 -21.796875 C 6.691406 -21.472656 6.765625 -21.128906 6.765625 -20.765625 Z M 6.765625 -20.765625 "/></g></g></g><g fill="#ffffff" fill-opacity="1"><g transform="translate(251.733487, 199.309493)"><g><path d="M 7.375 0.25 C 6.644531 0.25 5.992188 0.144531 5.421875 -0.0625 C 4.859375 -0.28125 4.382812 -0.585938 4 -0.984375 C 3.613281 -1.378906 3.320312 -1.859375 3.125 -2.421875 C 2.925781 -2.992188 2.828125 -3.632812 2.828125 -4.34375 L 2.828125 -13.0625 L 1.296875 -13.0625 C 1.066406 -13.0625 0.867188 -13.132812 0.703125 -13.28125 C 0.546875 -13.425781 0.46875 -13.648438 0.46875 -13.953125 L 0.46875 -15.640625 L 3.0625 -16.109375 L 3.9375 -20.296875 C 4.050781 -20.765625 4.367188 -21 4.890625 -21 L 7.15625 -21 L 7.15625 -16.078125 L 11.328125 -16.078125 L 11.328125 -13.0625 L 7.15625 -13.0625 L 7.15625 -4.625 C 7.15625 -4.175781 7.257812 -3.820312 7.46875 -3.5625 C 7.6875 -3.300781 7.992188 -3.171875 8.390625 -3.171875 C 8.597656 -3.171875 8.773438 -3.191406 8.921875 -3.234375 C 9.066406 -3.285156 9.191406 -3.335938 9.296875 -3.390625 C 9.398438 -3.453125 9.492188 -3.503906 9.578125 -3.546875 C 9.671875 -3.597656 9.769531 -3.625 9.875 -3.625 C 10 -3.625 10.101562 -3.59375 10.1875 -3.53125 C 10.269531 -3.476562 10.351562 -3.382812 10.4375 -3.25 L 11.734375 -1.171875 C 11.140625 -0.703125 10.460938 -0.347656 9.703125 -0.109375 C 8.953125 0.128906 8.175781 0.25 7.375 0.25 Z M 7.375 0.25 "/></g></g></g><g fill="#ffffff" fill-opacity="1"><g transform="translate(263.577434, 199.309493)"><g><path d="M 13.515625 -12.5625 C 13.390625 -12.394531 13.265625 -12.265625 13.140625 -12.171875 C 13.015625 -12.085938 12.835938 -12.046875 12.609375 -12.046875 C 12.398438 -12.046875 12.195312 -12.101562 12 -12.21875 C 11.8125 -12.34375 11.59375 -12.472656 11.34375 -12.609375 C 11.09375 -12.753906 10.796875 -12.882812 10.453125 -13 C 10.109375 -13.125 9.675781 -13.1875 9.15625 -13.1875 C 8.507812 -13.1875 7.945312 -13.066406 7.46875 -12.828125 C 7 -12.597656 6.601562 -12.265625 6.28125 -11.828125 C 5.96875 -11.390625 5.734375 -10.851562 5.578125 -10.21875 C 5.429688 -9.59375 5.359375 -8.890625 5.359375 -8.109375 C 5.359375 -6.453125 5.691406 -5.1875 6.359375 -4.3125 C 7.023438 -3.4375 7.929688 -3 9.078125 -3 C 9.472656 -3 9.816406 -3.03125 10.109375 -3.09375 C 10.398438 -3.164062 10.648438 -3.253906 10.859375 -3.359375 C 11.078125 -3.460938 11.265625 -3.578125 11.421875 -3.703125 C 11.578125 -3.828125 11.722656 -3.941406 11.859375 -4.046875 C 12.003906 -4.148438 12.144531 -4.234375 12.28125 -4.296875 C 12.425781 -4.367188 12.585938 -4.40625 12.765625 -4.40625 C 13.097656 -4.40625 13.359375 -4.28125 13.546875 -4.03125 L 14.796875 -2.46875 C 14.335938 -1.925781 13.84375 -1.476562 13.3125 -1.125 C 12.789062 -0.78125 12.25 -0.503906 11.6875 -0.296875 C 11.132812 -0.0976562 10.566406 0.0351562 9.984375 0.109375 C 9.410156 0.191406 8.84375 0.234375 8.28125 0.234375 C 7.289062 0.234375 6.347656 0.0507812 5.453125 -0.3125 C 4.566406 -0.6875 3.789062 -1.226562 3.125 -1.9375 C 2.457031 -2.65625 1.925781 -3.53125 1.53125 -4.5625 C 1.132812 -5.601562 0.9375 -6.785156 0.9375 -8.109375 C 0.9375 -9.296875 1.109375 -10.394531 1.453125 -11.40625 C 1.804688 -12.414062 2.316406 -13.289062 2.984375 -14.03125 C 3.648438 -14.78125 4.476562 -15.363281 5.46875 -15.78125 C 6.457031 -16.207031 7.597656 -16.421875 8.890625 -16.421875 C 10.128906 -16.421875 11.210938 -16.222656 12.140625 -15.828125 C 13.066406 -15.429688 13.90625 -14.859375 14.65625 -14.109375 Z M 13.515625 -12.5625 "/></g></g></g><g fill="#ffffff" fill-opacity="1"><g transform="translate(278.76278, 199.309493)"><g><path d="M 6.125 -14.59375 C 6.425781 -14.863281 6.738281 -15.109375 7.0625 -15.328125 C 7.394531 -15.554688 7.742188 -15.75 8.109375 -15.90625 C 8.484375 -16.070312 8.882812 -16.195312 9.3125 -16.28125 C 9.738281 -16.375 10.195312 -16.421875 10.6875 -16.421875 C 11.5625 -16.421875 12.335938 -16.269531 13.015625 -15.96875 C 13.703125 -15.664062 14.273438 -15.242188 14.734375 -14.703125 C 15.203125 -14.160156 15.550781 -13.507812 15.78125 -12.75 C 16.019531 -12 16.140625 -11.175781 16.140625 -10.28125 L 16.140625 0 L 11.828125 0 L 11.828125 -10.28125 C 11.828125 -11.175781 11.617188 -11.867188 11.203125 -12.359375 C 10.785156 -12.859375 10.164062 -13.109375 9.34375 -13.109375 C 8.738281 -13.109375 8.171875 -12.976562 7.640625 -12.71875 C 7.109375 -12.457031 6.601562 -12.09375 6.125 -11.625 L 6.125 0 L 1.78125 0 L 1.78125 -23.390625 L 6.125 -23.390625 Z M 6.125 -14.59375 "/></g></g></g><g fill="#ffffff" fill-opacity="1"><g transform="translate(296.552229, 199.309493)"><g><path d="M 12.046875 -10 C 12.046875 -10.445312 11.984375 -10.875 11.859375 -11.28125 C 11.742188 -11.6875 11.554688 -12.046875 11.296875 -12.359375 C 11.035156 -12.671875 10.703125 -12.914062 10.296875 -13.09375 C 9.898438 -13.28125 9.425781 -13.375 8.875 -13.375 C 7.84375 -13.375 7.03125 -13.082031 6.4375 -12.5 C 5.851562 -11.914062 5.472656 -11.082031 5.296875 -10 Z M 5.234375 -7.421875 C 5.367188 -5.898438 5.800781 -4.789062 6.53125 -4.09375 C 7.257812 -3.394531 8.207031 -3.046875 9.375 -3.046875 C 9.976562 -3.046875 10.492188 -3.113281 10.921875 -3.25 C 11.359375 -3.394531 11.738281 -3.550781 12.0625 -3.71875 C 12.394531 -3.894531 12.691406 -4.050781 12.953125 -4.1875 C 13.222656 -4.332031 13.492188 -4.40625 13.765625 -4.40625 C 14.097656 -4.40625 14.359375 -4.28125 14.546875 -4.03125 L 15.796875 -2.46875 C 15.335938 -1.925781 14.828125 -1.476562 14.265625 -1.125 C 13.710938 -0.78125 13.140625 -0.503906 12.546875 -0.296875 C 11.953125 -0.0976562 11.351562 0.0351562 10.75 0.109375 C 10.144531 0.191406 9.554688 0.234375 8.984375 0.234375 C 7.859375 0.234375 6.804688 0.0507812 5.828125 -0.3125 C 4.847656 -0.6875 3.992188 -1.238281 3.265625 -1.96875 C 2.546875 -2.695312 1.972656 -3.597656 1.546875 -4.671875 C 1.128906 -5.753906 0.921875 -7.003906 0.921875 -8.421875 C 0.921875 -9.523438 1.101562 -10.5625 1.46875 -11.53125 C 1.832031 -12.5 2.351562 -13.34375 3.03125 -14.0625 C 3.707031 -14.789062 4.53125 -15.363281 5.5 -15.78125 C 6.476562 -16.207031 7.578125 -16.421875 8.796875 -16.421875 C 9.835938 -16.421875 10.789062 -16.253906 11.65625 -15.921875 C 12.53125 -15.597656 13.285156 -15.117188 13.921875 -14.484375 C 14.554688 -13.859375 15.046875 -13.085938 15.390625 -12.171875 C 15.742188 -11.265625 15.921875 -10.222656 15.921875 -9.046875 C 15.921875 -8.722656 15.90625 -8.457031 15.875 -8.25 C 15.84375 -8.039062 15.789062 -7.875 15.71875 -7.75 C 15.644531 -7.625 15.546875 -7.535156 15.421875 -7.484375 C 15.296875 -7.441406 15.132812 -7.421875 14.9375 -7.421875 Z M 5.234375 -7.421875 "/></g></g></g><g fill="#ffffff" fill-opacity="1"><g transform="translate(313.369071, 199.309493)"><g><path d="M 5.796875 -14.296875 C 6.128906 -14.609375 6.46875 -14.894531 6.8125 -15.15625 C 7.164062 -15.414062 7.535156 -15.640625 7.921875 -15.828125 C 8.316406 -16.015625 8.742188 -16.160156 9.203125 -16.265625 C 9.660156 -16.367188 10.15625 -16.421875 10.6875 -16.421875 C 11.5625 -16.421875 12.335938 -16.269531 13.015625 -15.96875 C 13.703125 -15.664062 14.273438 -15.242188 14.734375 -14.703125 C 15.203125 -14.160156 15.550781 -13.507812 15.78125 -12.75 C 16.019531 -12 16.140625 -11.175781 16.140625 -10.28125 L 16.140625 0 L 11.828125 0 L 11.828125 -10.28125 C 11.828125 -11.175781 11.617188 -11.867188 11.203125 -12.359375 C 10.785156 -12.859375 10.164062 -13.109375 9.34375 -13.109375 C 8.738281 -13.109375 8.171875 -12.976562 7.640625 -12.71875 C 7.109375 -12.457031 6.601562 -12.09375 6.125 -11.625 L 6.125 0 L 1.78125 0 L 1.78125 -16.171875 L 4.453125 -16.171875 C 4.992188 -16.171875 5.351562 -15.921875 5.53125 -15.421875 Z M 5.796875 -14.296875 "/></g></g></g></svg>