<svg xmlns="http://www.w3.org/2000/svg" xmlns:xlink="http://www.w3.org/1999/xlink" width="500" zoomAndPan="magnify" viewBox="0 0 375 374.999991" height="500" preserveAspectRatio="xMidYMid meet" version="1.0"><defs><g/></defs><path fill="#f4991a" d="M 104.519531 210.851562 C 104.535156 207.445312 104.558594 203.925781 104.574219 203.542969 C 104.59375 202.941406 104.636719 202.402344 104.667969 201.9375 C 109.449219 200.921875 113.070312 196.117188 113.070312 190.339844 C 113.070312 183.832031 108.460938 171.058594 102.773438 171.058594 C 102.296875 171.058594 101.828125 171.152344 101.367188 171.320312 L 101.355469 171.324219 C 101.199219 171.382812 101.046875 171.453125 100.894531 171.523438 L 100.867188 171.539062 C 100.71875 171.613281 100.570312 171.695312 100.421875 171.785156 L 100.390625 171.804688 C 100.242188 171.898438 100.097656 171.992188 99.953125 172.097656 L 99.921875 172.121094 C 99.777344 172.230469 99.636719 172.34375 99.496094 172.464844 L 99.464844 172.492188 C 99.320312 172.613281 99.179688 172.742188 99.042969 172.878906 L 99.015625 172.90625 C 98.875 173.042969 98.738281 173.1875 98.601562 173.335938 L 98.585938 173.355469 C 97.152344 174.9375 95.894531 177.183594 94.898438 179.625 L 94.878906 179.664062 C 94.796875 179.871094 94.710938 180.082031 94.632812 180.289062 C 94.617188 180.339844 94.597656 180.386719 94.578125 180.433594 C 94.507812 180.621094 94.4375 180.8125 94.371094 181.003906 C 94.347656 181.070312 94.320312 181.140625 94.296875 181.210938 C 94.230469 181.390625 94.171875 181.5625 94.113281 181.742188 C 94.082031 181.828125 94.054688 181.910156 94.027344 181.996094 C 93.972656 182.160156 93.921875 182.328125 93.871094 182.492188 C 93.839844 182.589844 93.808594 182.6875 93.777344 182.785156 C 93.734375 182.9375 93.6875 183.097656 93.640625 183.25 C 93.609375 183.355469 93.578125 183.460938 93.550781 183.570312 C 93.507812 183.71875 93.46875 183.867188 93.429688 184.011719 C 93.402344 184.125 93.371094 184.242188 93.34375 184.355469 C 93.304688 184.496094 93.273438 184.636719 93.242188 184.773438 C 93.210938 184.894531 93.183594 185.011719 93.15625 185.132812 C 93.125 185.265625 93.09375 185.394531 93.066406 185.53125 C 93.039062 185.652344 93.015625 185.777344 92.992188 185.898438 C 92.964844 186.027344 92.9375 186.152344 92.914062 186.277344 C 92.886719 186.402344 92.867188 186.527344 92.84375 186.652344 C 92.824219 186.773438 92.804688 186.890625 92.78125 187.007812 C 92.761719 187.136719 92.742188 187.265625 92.722656 187.390625 C 92.707031 187.5 92.691406 187.613281 92.671875 187.722656 C 92.65625 187.851562 92.640625 187.984375 92.625 188.113281 C 92.613281 188.210938 92.597656 188.316406 92.585938 188.417969 C 92.574219 188.550781 92.558594 188.683594 92.550781 188.816406 C 92.542969 188.90625 92.53125 189 92.527344 189.089844 C 92.515625 189.230469 92.507812 189.367188 92.5 189.507812 C 92.496094 189.585938 92.492188 189.660156 92.488281 189.730469 C 92.476562 189.941406 92.472656 190.140625 92.472656 190.339844 C 92.472656 190.671875 92.488281 191.003906 92.511719 191.328125 C 92.515625 191.371094 92.519531 191.414062 92.523438 191.457031 C 92.546875 191.769531 92.585938 192.070312 92.628906 192.375 C 92.640625 192.429688 92.644531 192.476562 92.652344 192.527344 C 92.703125 192.832031 92.761719 193.128906 92.832031 193.421875 C 92.839844 193.460938 92.851562 193.5 92.859375 193.539062 C 92.933594 193.84375 93.019531 194.148438 93.113281 194.445312 L 93.117188 194.449219 C 93.21875 194.765625 93.332031 195.078125 93.460938 195.378906 L 93.460938 195.382812 C 93.582031 195.6875 93.71875 195.972656 93.863281 196.257812 L 93.882812 196.292969 C 94.027344 196.578125 94.183594 196.855469 94.347656 197.121094 L 94.351562 197.125 C 95.867188 199.597656 98.1875 201.367188 100.878906 201.9375 C 100.910156 202.402344 100.949219 202.941406 100.972656 203.542969 C 100.988281 203.925781 101.003906 207.445312 101.027344 210.851562 C 92.683594 210.238281 85.550781 205.273438 81.894531 198.21875 C 83.570312 194.984375 84.515625 191.316406 84.515625 187.417969 C 84.515625 183.523438 83.570312 179.851562 81.894531 176.617188 C 85.804688 169.074219 93.6875 163.917969 102.769531 163.917969 C 112.023438 163.917969 120.027344 169.261719 123.859375 177.035156 C 122.324219 180.160156 121.460938 183.675781 121.460938 187.394531 C 121.460938 191.121094 122.332031 194.644531 123.875 197.777344 C 120.289062 205.066406 113.035156 210.226562 104.519531 210.851562 " fill-opacity="1" fill-rule="nonzero"/><path fill="#321313" d="M 62.757812 210.851562 C 62.777344 207.269531 62.800781 203.335938 62.816406 202.933594 C 62.839844 202.261719 62.890625 201.675781 62.921875 201.179688 C 66.296875 199.941406 68.804688 195.523438 68.855469 190.230469 L 68.847656 190.230469 C 68.847656 190.144531 68.851562 190.058594 68.847656 189.972656 C 68.371094 184.207031 67.882812 178.4375 67.402344 172.675781 C 67.3125 171.566406 67.007812 170.683594 66.722656 170.683594 C 66.441406 170.6875 66.175781 171.59375 66.132812 172.703125 C 65.910156 178.480469 65.6875 184.261719 65.464844 190.046875 C 65.460938 190.113281 65.472656 190.167969 65.476562 190.230469 L 64.746094 190.230469 C 64.75 190.160156 64.761719 190.09375 64.757812 190.019531 C 64.425781 184.238281 64.097656 178.464844 63.769531 172.691406 C 63.710938 171.578125 63.425781 170.683594 63.144531 170.679688 C 62.863281 170.679688 62.574219 171.570312 62.503906 172.683594 C 62.125 178.453125 61.75 184.230469 61.367188 190.003906 C 61.363281 190.082031 61.371094 190.15625 61.375 190.230469 L 60.652344 190.230469 C 60.652344 190.164062 60.660156 190.097656 60.660156 190.027344 C 60.359375 184.246094 60.058594 178.464844 59.753906 172.691406 C 59.699219 171.582031 59.417969 170.683594 59.136719 170.679688 C 58.851562 170.679688 58.566406 171.570312 58.488281 172.683594 C 58.082031 178.449219 57.679688 184.226562 57.273438 190 C 57.269531 190.078125 57.277344 190.15625 57.277344 190.230469 L 56.554688 190.230469 C 56.554688 190.167969 56.566406 190.113281 56.5625 190.046875 C 56.355469 184.683594 56.148438 179.320312 55.941406 173.964844 L 55.941406 173.960938 C 55.925781 173.542969 55.910156 173.121094 55.894531 172.703125 C 55.851562 171.59375 55.585938 170.6875 55.304688 170.683594 L 55.300781 170.683594 C 55.019531 170.683594 54.714844 171.566406 54.625 172.675781 C 54.144531 178.4375 53.65625 184.207031 53.179688 189.972656 C 53.171875 190.058594 53.179688 190.144531 53.179688 190.230469 L 53.171875 190.230469 C 53.175781 190.597656 53.195312 190.957031 53.21875 191.308594 C 53.226562 191.425781 53.242188 191.542969 53.253906 191.65625 C 53.273438 191.890625 53.300781 192.125 53.332031 192.355469 C 53.351562 192.496094 53.375 192.628906 53.394531 192.761719 C 53.429688 192.964844 53.464844 193.171875 53.507812 193.367188 C 53.539062 193.511719 53.566406 193.652344 53.601562 193.792969 C 53.644531 193.976562 53.691406 194.160156 53.742188 194.335938 C 53.78125 194.484375 53.820312 194.628906 53.863281 194.769531 C 53.914062 194.933594 53.96875 195.089844 54.027344 195.25 C 54.078125 195.398438 54.125 195.546875 54.183594 195.695312 L 54.199219 195.734375 C 54.378906 196.199219 54.585938 196.640625 54.8125 197.0625 C 54.847656 197.125 54.878906 197.195312 54.910156 197.257812 C 55.015625 197.445312 55.128906 197.628906 55.242188 197.808594 C 55.277344 197.867188 55.3125 197.921875 55.347656 197.976562 C 55.46875 198.164062 55.59375 198.335938 55.722656 198.511719 C 55.75 198.550781 55.777344 198.585938 55.808594 198.625 C 55.949219 198.804688 56.09375 198.984375 56.242188 199.15625 L 56.253906 199.164062 C 57.089844 200.101562 58.054688 200.792969 59.109375 201.179688 C 59.128906 201.503906 59.15625 201.867188 59.183594 202.269531 C 59.183594 202.320312 59.1875 202.371094 59.191406 202.421875 C 59.199219 202.585938 59.207031 202.753906 59.214844 202.933594 C 59.230469 203.335938 59.25 207.269531 59.273438 210.851562 C 47.105469 209.957031 37.511719 199.8125 37.511719 187.417969 C 37.511719 174.4375 48.035156 163.917969 61.011719 163.917969 C 70.097656 163.917969 77.984375 169.074219 81.894531 176.617188 C 80.21875 179.851562 79.269531 183.523438 79.269531 187.417969 C 79.269531 191.3125 80.21875 194.984375 81.894531 198.21875 C 78.234375 205.273438 71.101562 210.238281 62.757812 210.851562 " fill-opacity="1" fill-rule="nonzero"/><path fill="#321313" d="M 81.894531 198.21875 C 80.21875 194.984375 79.269531 191.3125 79.269531 187.417969 C 79.269531 183.523438 80.21875 179.851562 81.894531 176.617188 C 83.570312 179.851562 84.515625 183.523438 84.515625 187.417969 C 84.515625 191.316406 83.570312 194.984375 81.894531 198.21875 " fill-opacity="1" fill-rule="nonzero"/><path fill="#f2ead3" d="M 145.664062 210.878906 C 145.65625 209.546875 145.671875 208.300781 145.707031 207.199219 C 145.710938 207.046875 145.710938 206.472656 145.71875 205.675781 L 146.78125 205.675781 C 148.136719 205.675781 149.234375 204.582031 149.234375 203.226562 C 149.234375 203.226562 149.246094 169.382812 145.3125 169.382812 C 144.910156 169.382812 144.523438 169.496094 144.183594 169.679688 C 143.910156 169.828125 143.667969 170.019531 143.464844 170.253906 L 143.394531 170.335938 C 143.339844 170.402344 143.292969 170.464844 143.246094 170.539062 C 143.183594 170.636719 143.125 170.738281 143.074219 170.847656 C 143.058594 170.886719 143.042969 170.929688 143.03125 170.972656 C 142.988281 171.070312 142.957031 171.167969 142.933594 171.265625 C 142.925781 171.3125 142.914062 171.351562 142.90625 171.398438 C 142.878906 171.539062 142.859375 171.679688 142.859375 171.835938 C 142.859375 171.835938 142.917969 206.863281 142.925781 207.199219 C 142.953125 208.285156 142.96875 209.503906 142.964844 210.808594 C 134.570312 210.097656 127.429688 204.980469 123.875 197.777344 C 125.410156 194.652344 126.277344 191.136719 126.277344 187.417969 C 126.277344 183.691406 125.40625 180.167969 123.859375 177.035156 C 127.691406 169.25 135.703125 163.894531 144.964844 163.894531 C 157.945312 163.894531 168.46875 174.414062 168.46875 187.394531 C 168.46875 200.140625 158.320312 210.507812 145.664062 210.878906 " fill-opacity="1" fill-rule="nonzero"/><path fill="#f4991a" d="M 123.875 197.777344 C 122.332031 194.644531 121.460938 191.121094 121.460938 187.394531 C 121.460938 183.675781 122.324219 180.160156 123.859375 177.035156 C 125.40625 180.167969 126.277344 183.691406 126.277344 187.417969 C 126.277344 191.136719 125.410156 194.652344 123.875 197.777344 " fill-opacity="1" fill-rule="nonzero"/><g fill="#ffffff" fill-opacity="1"><g transform="translate(93.192456, 280.540294)"><g><path d="M 1.921875 -2.96875 L 1.921875 0 L 0.96875 0 L 0.96875 -7.125 L 2.96875 -7.125 C 3.425781 -7.125 3.816406 -7.078125 4.140625 -6.984375 C 4.472656 -6.890625 4.742188 -6.753906 4.953125 -6.578125 C 5.171875 -6.410156 5.328125 -6.203125 5.421875 -5.953125 C 5.523438 -5.710938 5.578125 -5.441406 5.578125 -5.140625 C 5.578125 -4.890625 5.535156 -4.65625 5.453125 -4.4375 C 5.378906 -4.21875 5.265625 -4.019531 5.109375 -3.84375 C 4.960938 -3.675781 4.78125 -3.53125 4.5625 -3.40625 C 4.351562 -3.28125 4.109375 -3.1875 3.828125 -3.125 C 3.953125 -3.0625 4.0625 -2.960938 4.15625 -2.828125 L 6.21875 0 L 5.375 0 C 5.195312 0 5.066406 -0.0664062 4.984375 -0.203125 L 3.140625 -2.75 C 3.078125 -2.820312 3.015625 -2.875 2.953125 -2.90625 C 2.890625 -2.945312 2.789062 -2.96875 2.65625 -2.96875 Z M 1.921875 -3.671875 L 2.9375 -3.671875 C 3.21875 -3.671875 3.460938 -3.703125 3.671875 -3.765625 C 3.890625 -3.835938 4.066406 -3.9375 4.203125 -4.0625 C 4.347656 -4.1875 4.457031 -4.332031 4.53125 -4.5 C 4.601562 -4.675781 4.640625 -4.867188 4.640625 -5.078125 C 4.640625 -5.503906 4.5 -5.820312 4.21875 -6.03125 C 3.945312 -6.25 3.53125 -6.359375 2.96875 -6.359375 L 1.921875 -6.359375 Z M 1.921875 -3.671875 "/></g></g></g><g fill="#ffffff" fill-opacity="1"><g transform="translate(104.759842, 280.540294)"><g><path d="M 5.25 -7.125 L 5.25 -6.328125 L 1.828125 -6.328125 L 1.828125 -3.96875 L 4.59375 -3.96875 L 4.59375 -3.21875 L 1.828125 -3.21875 L 1.828125 -0.78125 L 5.25 -0.78125 L 5.25 0 L 0.859375 0 L 0.859375 -7.125 Z M 5.25 -7.125 "/></g></g></g><g fill="#ffffff" fill-opacity="1"><g transform="translate(115.701179, 280.540294)"><g><path d="M 0.046875 -7.125 L 0.8125 -7.125 C 0.894531 -7.125 0.960938 -7.097656 1.015625 -7.046875 C 1.066406 -7.003906 1.109375 -6.953125 1.140625 -6.890625 L 3.15625 -1.875 C 3.195312 -1.757812 3.234375 -1.632812 3.265625 -1.5 C 3.304688 -1.363281 3.347656 -1.226562 3.390625 -1.09375 C 3.421875 -1.226562 3.453125 -1.363281 3.484375 -1.5 C 3.515625 -1.632812 3.554688 -1.757812 3.609375 -1.875 L 5.609375 -6.890625 C 5.628906 -6.941406 5.664062 -6.992188 5.71875 -7.046875 C 5.78125 -7.097656 5.851562 -7.125 5.9375 -7.125 L 6.71875 -7.125 L 3.8125 0 L 2.9375 0 Z M 0.046875 -7.125 "/></g></g></g><g fill="#ffffff" fill-opacity="1"><g transform="translate(127.626318, 280.540294)"><g><path d="M 2 0 L 1.046875 0 L 1.046875 -7.125 L 2 -7.125 Z M 2 0 "/></g></g></g><g fill="#ffffff" fill-opacity="1"><g transform="translate(135.844809, 280.540294)"><g><path d="M 5.25 -7.125 L 5.25 -6.328125 L 1.828125 -6.328125 L 1.828125 -3.96875 L 4.59375 -3.96875 L 4.59375 -3.21875 L 1.828125 -3.21875 L 1.828125 -0.78125 L 5.25 -0.78125 L 5.25 0 L 0.859375 0 L 0.859375 -7.125 Z M 5.25 -7.125 "/></g></g></g><g fill="#ffffff" fill-opacity="1"><g transform="translate(146.786147, 280.540294)"><g><path d="M 0.0625 -7.125 L 0.875 -7.125 C 0.957031 -7.125 1.023438 -7.097656 1.078125 -7.046875 C 1.140625 -7.003906 1.179688 -6.953125 1.203125 -6.890625 L 2.671875 -1.9375 C 2.691406 -1.851562 2.710938 -1.757812 2.734375 -1.65625 C 2.753906 -1.550781 2.773438 -1.441406 2.796875 -1.328125 C 2.828125 -1.441406 2.851562 -1.550781 2.875 -1.65625 C 2.894531 -1.757812 2.921875 -1.851562 2.953125 -1.9375 L 4.625 -6.890625 C 4.644531 -6.941406 4.679688 -6.992188 4.734375 -7.046875 C 4.796875 -7.097656 4.867188 -7.125 4.953125 -7.125 L 5.234375 -7.125 C 5.316406 -7.125 5.382812 -7.097656 5.4375 -7.046875 C 5.5 -7.003906 5.539062 -6.953125 5.5625 -6.890625 L 7.21875 -1.9375 C 7.28125 -1.769531 7.335938 -1.570312 7.390625 -1.34375 C 7.398438 -1.457031 7.414062 -1.5625 7.4375 -1.65625 C 7.457031 -1.757812 7.476562 -1.851562 7.5 -1.9375 L 8.984375 -6.890625 C 8.992188 -6.953125 9.023438 -7.003906 9.078125 -7.046875 C 9.140625 -7.097656 9.210938 -7.125 9.296875 -7.125 L 10.046875 -7.125 L 7.828125 0 L 6.96875 0 L 5.15625 -5.4375 C 5.125 -5.53125 5.09375 -5.644531 5.0625 -5.78125 C 5.039062 -5.71875 5.023438 -5.65625 5.015625 -5.59375 C 5.003906 -5.53125 4.988281 -5.476562 4.96875 -5.4375 L 3.15625 0 L 2.296875 0 Z M 0.0625 -7.125 "/></g></g></g><g fill="#ffffff" fill-opacity="1"><g transform="translate(162.080059, 280.540294)"><g><path d="M 4.515625 -6 C 4.484375 -5.957031 4.453125 -5.921875 4.421875 -5.890625 C 4.390625 -5.867188 4.34375 -5.859375 4.28125 -5.859375 C 4.226562 -5.859375 4.164062 -5.882812 4.09375 -5.9375 C 4.019531 -6 3.925781 -6.0625 3.8125 -6.125 C 3.695312 -6.195312 3.554688 -6.257812 3.390625 -6.3125 C 3.234375 -6.375 3.039062 -6.40625 2.8125 -6.40625 C 2.59375 -6.40625 2.398438 -6.375 2.234375 -6.3125 C 2.078125 -6.25 1.941406 -6.164062 1.828125 -6.0625 C 1.710938 -5.96875 1.625 -5.851562 1.5625 -5.71875 C 1.507812 -5.59375 1.484375 -5.453125 1.484375 -5.296875 C 1.484375 -5.097656 1.53125 -4.929688 1.625 -4.796875 C 1.726562 -4.660156 1.859375 -4.546875 2.015625 -4.453125 C 2.179688 -4.367188 2.363281 -4.289062 2.5625 -4.21875 C 2.769531 -4.15625 2.976562 -4.085938 3.1875 -4.015625 C 3.40625 -3.941406 3.613281 -3.859375 3.8125 -3.765625 C 4.019531 -3.671875 4.203125 -3.550781 4.359375 -3.40625 C 4.523438 -3.269531 4.65625 -3.101562 4.75 -2.90625 C 4.851562 -2.707031 4.90625 -2.457031 4.90625 -2.15625 C 4.90625 -1.84375 4.851562 -1.550781 4.75 -1.28125 C 4.644531 -1.007812 4.488281 -0.769531 4.28125 -0.5625 C 4.070312 -0.363281 3.816406 -0.207031 3.515625 -0.09375 C 3.222656 0.0195312 2.890625 0.078125 2.515625 0.078125 C 2.054688 0.078125 1.632812 -0.00390625 1.25 -0.171875 C 0.875 -0.335938 0.550781 -0.5625 0.28125 -0.84375 L 0.5625 -1.3125 C 0.59375 -1.34375 0.625 -1.367188 0.65625 -1.390625 C 0.695312 -1.421875 0.742188 -1.4375 0.796875 -1.4375 C 0.859375 -1.4375 0.929688 -1.398438 1.015625 -1.328125 C 1.109375 -1.253906 1.222656 -1.171875 1.359375 -1.078125 C 1.492188 -0.984375 1.65625 -0.898438 1.84375 -0.828125 C 2.039062 -0.753906 2.273438 -0.71875 2.546875 -0.71875 C 2.773438 -0.71875 2.976562 -0.75 3.15625 -0.8125 C 3.332031 -0.875 3.484375 -0.960938 3.609375 -1.078125 C 3.734375 -1.191406 3.828125 -1.328125 3.890625 -1.484375 C 3.960938 -1.648438 4 -1.828125 4 -2.015625 C 4 -2.234375 3.945312 -2.410156 3.84375 -2.546875 C 3.75 -2.679688 3.625 -2.796875 3.46875 -2.890625 C 3.3125 -2.984375 3.128906 -3.0625 2.921875 -3.125 C 2.722656 -3.195312 2.515625 -3.265625 2.296875 -3.328125 C 2.085938 -3.398438 1.878906 -3.476562 1.671875 -3.5625 C 1.460938 -3.65625 1.28125 -3.769531 1.125 -3.90625 C 0.96875 -4.050781 0.835938 -4.226562 0.734375 -4.4375 C 0.640625 -4.65625 0.59375 -4.921875 0.59375 -5.234375 C 0.59375 -5.492188 0.640625 -5.738281 0.734375 -5.96875 C 0.835938 -6.207031 0.984375 -6.414062 1.171875 -6.59375 C 1.359375 -6.78125 1.585938 -6.925781 1.859375 -7.03125 C 2.128906 -7.144531 2.441406 -7.203125 2.796875 -7.203125 C 3.191406 -7.203125 3.550781 -7.140625 3.875 -7.015625 C 4.207031 -6.890625 4.5 -6.707031 4.75 -6.46875 Z M 4.515625 -6 "/></g></g></g><g fill="#ffffff" fill-opacity="1"><g transform="translate(172.514581, 280.540294)"><g/></g></g><g fill="#ffffff" fill-opacity="1"><g transform="translate(179.600196, 280.540294)"><g><path d="M 7.03125 -3.5625 C 7.03125 -3.019531 6.945312 -2.53125 6.78125 -2.09375 C 6.613281 -1.664062 6.375 -1.296875 6.0625 -0.984375 C 5.757812 -0.671875 5.390625 -0.425781 4.953125 -0.25 C 4.523438 -0.0820312 4.050781 0 3.53125 0 L 0.859375 0 L 0.859375 -7.125 L 3.53125 -7.125 C 4.050781 -7.125 4.523438 -7.035156 4.953125 -6.859375 C 5.390625 -6.691406 5.757812 -6.453125 6.0625 -6.140625 C 6.375 -5.828125 6.613281 -5.453125 6.78125 -5.015625 C 6.945312 -4.578125 7.03125 -4.09375 7.03125 -3.5625 Z M 6.046875 -3.5625 C 6.046875 -4 5.984375 -4.390625 5.859375 -4.734375 C 5.742188 -5.078125 5.578125 -5.367188 5.359375 -5.609375 C 5.140625 -5.847656 4.875 -6.03125 4.5625 -6.15625 C 4.25 -6.28125 3.90625 -6.34375 3.53125 -6.34375 L 1.828125 -6.34375 L 1.828125 -0.78125 L 3.53125 -0.78125 C 3.90625 -0.78125 4.25 -0.84375 4.5625 -0.96875 C 4.875 -1.09375 5.140625 -1.273438 5.359375 -1.515625 C 5.578125 -1.753906 5.742188 -2.046875 5.859375 -2.390625 C 5.984375 -2.734375 6.046875 -3.125 6.046875 -3.5625 Z M 6.046875 -3.5625 "/></g></g></g><g fill="#ffffff" fill-opacity="1"><g transform="translate(192.250769, 280.540294)"><g><path d="M 5.25 -7.125 L 5.25 -6.328125 L 1.828125 -6.328125 L 1.828125 -3.96875 L 4.59375 -3.96875 L 4.59375 -3.21875 L 1.828125 -3.21875 L 1.828125 -0.78125 L 5.25 -0.78125 L 5.25 0 L 0.859375 0 L 0.859375 -7.125 Z M 5.25 -7.125 "/></g></g></g><g fill="#ffffff" fill-opacity="1"><g transform="translate(203.19211, 280.540294)"><g/></g></g><g fill="#ffffff" fill-opacity="1"><g transform="translate(210.27773, 280.540294)"><g><path d="M 2 0 L 1.046875 0 L 1.046875 -7.125 L 2 -7.125 Z M 2 0 "/></g></g></g><g fill="#ffffff" fill-opacity="1"><g transform="translate(218.496224, 280.540294)"><g><path d="M 5.71875 -7.125 L 5.71875 -6.3125 L 3.40625 -6.3125 L 3.40625 0 L 2.453125 0 L 2.453125 -6.3125 L 0.140625 -6.3125 L 0.140625 -7.125 Z M 5.71875 -7.125 "/></g></g></g><g fill="#ffffff" fill-opacity="1"><g transform="translate(229.527, 280.540294)"><g><path d="M 6.71875 0 L 5.984375 0 C 5.890625 0 5.816406 -0.0195312 5.765625 -0.0625 C 5.710938 -0.101562 5.675781 -0.160156 5.65625 -0.234375 L 4.984375 -1.953125 L 1.78125 -1.953125 L 1.125 -0.234375 C 1.101562 -0.171875 1.0625 -0.113281 1 -0.0625 C 0.945312 -0.0195312 0.878906 0 0.796875 0 L 0.046875 0 L 2.890625 -7.125 L 3.875 -7.125 Z M 2.0625 -2.640625 L 4.71875 -2.640625 L 3.59375 -5.546875 C 3.519531 -5.722656 3.453125 -5.941406 3.390625 -6.203125 C 3.347656 -6.066406 3.304688 -5.941406 3.265625 -5.828125 C 3.234375 -5.722656 3.203125 -5.625 3.171875 -5.53125 Z M 2.0625 -2.640625 "/></g></g></g><g fill="#ffffff" fill-opacity="1"><g transform="translate(241.452144, 280.540294)"><g><path d="M 3.546875 -2.453125 C 3.546875 -2.054688 3.492188 -1.703125 3.390625 -1.390625 C 3.296875 -1.078125 3.148438 -0.8125 2.953125 -0.59375 C 2.765625 -0.375 2.53125 -0.207031 2.25 -0.09375 C 1.976562 0.0195312 1.660156 0.078125 1.296875 0.078125 C 0.972656 0.078125 0.640625 0.03125 0.296875 -0.0625 C 0.304688 -0.15625 0.316406 -0.25 0.328125 -0.34375 C 0.335938 -0.4375 0.347656 -0.53125 0.359375 -0.625 C 0.359375 -0.675781 0.375 -0.71875 0.40625 -0.75 C 0.445312 -0.789062 0.503906 -0.8125 0.578125 -0.8125 C 0.628906 -0.8125 0.703125 -0.796875 0.796875 -0.765625 C 0.898438 -0.734375 1.035156 -0.71875 1.203125 -0.71875 C 1.421875 -0.71875 1.613281 -0.75 1.78125 -0.8125 C 1.957031 -0.882812 2.101562 -0.988281 2.21875 -1.125 C 2.34375 -1.269531 2.429688 -1.453125 2.484375 -1.671875 C 2.546875 -1.890625 2.578125 -2.144531 2.578125 -2.4375 L 2.578125 -7.125 L 3.546875 -7.125 Z M 3.546875 -2.453125 "/></g></g></g><g fill="#ffffff" fill-opacity="1"><g transform="translate(251.032061, 280.540294)"><g><path d="M 3.625 -0.765625 C 3.925781 -0.765625 4.191406 -0.8125 4.421875 -0.90625 C 4.648438 -1.007812 4.84375 -1.148438 5 -1.328125 C 5.164062 -1.503906 5.289062 -1.71875 5.375 -1.96875 C 5.457031 -2.21875 5.5 -2.492188 5.5 -2.796875 L 5.5 -7.125 L 6.46875 -7.125 L 6.46875 -2.796875 C 6.46875 -2.378906 6.398438 -1.992188 6.265625 -1.640625 C 6.140625 -1.296875 5.953125 -0.992188 5.703125 -0.734375 C 5.460938 -0.484375 5.164062 -0.285156 4.8125 -0.140625 C 4.457031 0.00390625 4.0625 0.078125 3.625 0.078125 C 3.1875 0.078125 2.789062 0.00390625 2.4375 -0.140625 C 2.09375 -0.285156 1.796875 -0.484375 1.546875 -0.734375 C 1.304688 -0.992188 1.117188 -1.296875 0.984375 -1.640625 C 0.859375 -1.992188 0.796875 -2.378906 0.796875 -2.796875 L 0.796875 -7.125 L 1.75 -7.125 L 1.75 -2.796875 C 1.75 -2.492188 1.789062 -2.21875 1.875 -1.96875 C 1.957031 -1.726562 2.078125 -1.515625 2.234375 -1.328125 C 2.398438 -1.148438 2.597656 -1.007812 2.828125 -0.90625 C 3.066406 -0.8125 3.332031 -0.765625 3.625 -0.765625 Z M 3.625 -0.765625 "/></g></g></g><g fill="#ffffff" fill-opacity="1"><g transform="translate(263.454072, 280.540294)"><g><path d="M 0.859375 0 L 0.859375 -7.125 L 3.140625 -7.125 C 3.578125 -7.125 3.953125 -7.078125 4.265625 -6.984375 C 4.578125 -6.898438 4.832031 -6.78125 5.03125 -6.625 C 5.238281 -6.46875 5.390625 -6.269531 5.484375 -6.03125 C 5.585938 -5.800781 5.640625 -5.546875 5.640625 -5.265625 C 5.640625 -5.085938 5.613281 -4.914062 5.5625 -4.75 C 5.507812 -4.59375 5.425781 -4.441406 5.3125 -4.296875 C 5.195312 -4.160156 5.054688 -4.035156 4.890625 -3.921875 C 4.722656 -3.816406 4.53125 -3.726562 4.3125 -3.65625 C 4.832031 -3.5625 5.222656 -3.375 5.484375 -3.09375 C 5.753906 -2.820312 5.890625 -2.46875 5.890625 -2.03125 C 5.890625 -1.726562 5.832031 -1.453125 5.71875 -1.203125 C 5.601562 -0.953125 5.4375 -0.738281 5.21875 -0.5625 C 5.007812 -0.382812 4.75 -0.242188 4.4375 -0.140625 C 4.132812 -0.046875 3.785156 0 3.390625 0 Z M 1.828125 -3.25 L 1.828125 -0.765625 L 3.375 -0.765625 C 3.644531 -0.765625 3.878906 -0.796875 4.078125 -0.859375 C 4.273438 -0.921875 4.4375 -1.007812 4.5625 -1.125 C 4.6875 -1.238281 4.78125 -1.375 4.84375 -1.53125 C 4.90625 -1.6875 4.9375 -1.859375 4.9375 -2.046875 C 4.9375 -2.421875 4.804688 -2.710938 4.546875 -2.921875 C 4.285156 -3.140625 3.890625 -3.25 3.359375 -3.25 Z M 1.828125 -3.9375 L 3.09375 -3.9375 C 3.375 -3.9375 3.613281 -3.960938 3.8125 -4.015625 C 4.007812 -4.078125 4.171875 -4.160156 4.296875 -4.265625 C 4.429688 -4.367188 4.53125 -4.492188 4.59375 -4.640625 C 4.65625 -4.796875 4.6875 -4.960938 4.6875 -5.140625 C 4.6875 -5.566406 4.5625 -5.875 4.3125 -6.0625 C 4.0625 -6.257812 3.671875 -6.359375 3.140625 -6.359375 L 1.828125 -6.359375 Z M 1.828125 -3.9375 "/></g></g></g><g fill="#ffffff" fill-opacity="1"><g transform="translate(275.051274, 280.540294)"><g><path d="M 6.71875 0 L 5.984375 0 C 5.890625 0 5.816406 -0.0195312 5.765625 -0.0625 C 5.710938 -0.101562 5.675781 -0.160156 5.65625 -0.234375 L 4.984375 -1.953125 L 1.78125 -1.953125 L 1.125 -0.234375 C 1.101562 -0.171875 1.0625 -0.113281 1 -0.0625 C 0.945312 -0.0195312 0.878906 0 0.796875 0 L 0.046875 0 L 2.890625 -7.125 L 3.875 -7.125 Z M 2.0625 -2.640625 L 4.71875 -2.640625 L 3.59375 -5.546875 C 3.519531 -5.722656 3.453125 -5.941406 3.390625 -6.203125 C 3.347656 -6.066406 3.304688 -5.941406 3.265625 -5.828125 C 3.234375 -5.722656 3.203125 -5.625 3.171875 -5.53125 Z M 5.0625 -8.859375 L 3.609375 -7.78125 C 3.546875 -7.738281 3.492188 -7.710938 3.453125 -7.703125 C 3.410156 -7.691406 3.351562 -7.6875 3.28125 -7.6875 L 2.609375 -7.6875 L 3.65625 -8.6875 C 3.6875 -8.71875 3.710938 -8.742188 3.734375 -8.765625 C 3.765625 -8.785156 3.796875 -8.800781 3.828125 -8.8125 C 3.859375 -8.832031 3.890625 -8.84375 3.921875 -8.84375 C 3.960938 -8.851562 4.007812 -8.859375 4.0625 -8.859375 Z M 5.0625 -8.859375 "/></g></g></g><g fill="#321313" fill-opacity="1"><g transform="translate(184.356338, 199.309493)"><g><path d="M 7.125 0 L 2.390625 0 L 2.390625 -22.765625 L 7.125 -22.765625 Z M 7.125 0 "/></g></g></g><g fill="#321313" fill-opacity="1"><g transform="translate(193.86287, 199.309493)"><g><path d="M 7.375 0.25 C 6.644531 0.25 5.992188 0.144531 5.421875 -0.0625 C 4.859375 -0.28125 4.382812 -0.585938 4 -0.984375 C 3.613281 -1.378906 3.320312 -1.859375 3.125 -2.421875 C 2.925781 -2.992188 2.828125 -3.632812 2.828125 -4.34375 L 2.828125 -13.0625 L 1.296875 -13.0625 C 1.066406 -13.0625 0.867188 -13.132812 0.703125 -13.28125 C 0.546875 -13.425781 0.46875 -13.648438 0.46875 -13.953125 L 0.46875 -15.640625 L 3.0625 -16.109375 L 3.9375 -20.296875 C 4.050781 -20.765625 4.367188 -21 4.890625 -21 L 7.15625 -21 L 7.15625 -16.078125 L 11.328125 -16.078125 L 11.328125 -13.0625 L 7.15625 -13.0625 L 7.15625 -4.625 C 7.15625 -4.175781 7.257812 -3.820312 7.46875 -3.5625 C 7.6875 -3.300781 7.992188 -3.171875 8.390625 -3.171875 C 8.597656 -3.171875 8.773438 -3.191406 8.921875 -3.234375 C 9.066406 -3.285156 9.191406 -3.335938 9.296875 -3.390625 C 9.398438 -3.453125 9.492188 -3.503906 9.578125 -3.546875 C 9.671875 -3.597656 9.769531 -3.625 9.875 -3.625 C 10 -3.625 10.101562 -3.59375 10.1875 -3.53125 C 10.269531 -3.476562 10.351562 -3.382812 10.4375 -3.25 L 11.734375 -1.171875 C 11.140625 -0.703125 10.460938 -0.347656 9.703125 -0.109375 C 8.953125 0.128906 8.175781 0.25 7.375 0.25 Z M 7.375 0.25 "/></g></g></g><g fill="#321313" fill-opacity="1"><g transform="translate(205.706816, 199.309493)"><g><path d="M 10.25 -6.765625 C 9.1875 -6.710938 8.304688 -6.617188 7.609375 -6.484375 C 6.910156 -6.359375 6.351562 -6.1875 5.9375 -5.96875 C 5.519531 -5.757812 5.222656 -5.519531 5.046875 -5.25 C 4.878906 -4.988281 4.796875 -4.703125 4.796875 -4.390625 C 4.796875 -3.765625 4.96875 -3.320312 5.3125 -3.0625 C 5.664062 -2.800781 6.160156 -2.671875 6.796875 -2.671875 C 7.515625 -2.671875 8.132812 -2.796875 8.65625 -3.046875 C 9.1875 -3.304688 9.71875 -3.707031 10.25 -4.25 Z M 1.421875 -13.9375 C 2.378906 -14.789062 3.429688 -15.425781 4.578125 -15.84375 C 5.734375 -16.269531 6.976562 -16.484375 8.3125 -16.484375 C 9.269531 -16.484375 10.128906 -16.328125 10.890625 -16.015625 C 11.648438 -15.703125 12.289062 -15.265625 12.8125 -14.703125 C 13.34375 -14.148438 13.75 -13.484375 14.03125 -12.703125 C 14.320312 -11.929688 14.46875 -11.085938 14.46875 -10.171875 L 14.46875 0 L 12.484375 0 C 12.078125 0 11.765625 -0.0546875 11.546875 -0.171875 C 11.335938 -0.285156 11.164062 -0.523438 11.03125 -0.890625 L 10.6875 -1.921875 C 10.28125 -1.566406 9.882812 -1.253906 9.5 -0.984375 C 9.113281 -0.710938 8.71875 -0.484375 8.3125 -0.296875 C 7.90625 -0.117188 7.46875 0.015625 7 0.109375 C 6.539062 0.203125 6.019531 0.25 5.4375 0.25 C 4.726562 0.25 4.082031 0.15625 3.5 -0.03125 C 2.914062 -0.21875 2.410156 -0.492188 1.984375 -0.859375 C 1.554688 -1.234375 1.226562 -1.695312 1 -2.25 C 0.769531 -2.8125 0.65625 -3.453125 0.65625 -4.171875 C 0.65625 -4.765625 0.804688 -5.359375 1.109375 -5.953125 C 1.410156 -6.554688 1.929688 -7.097656 2.671875 -7.578125 C 3.410156 -8.066406 4.394531 -8.46875 5.625 -8.78125 C 6.851562 -9.101562 8.394531 -9.285156 10.25 -9.328125 L 10.25 -10.171875 C 10.25 -11.179688 10.03125 -11.921875 9.59375 -12.390625 C 9.164062 -12.867188 8.550781 -13.109375 7.75 -13.109375 C 7.15625 -13.109375 6.65625 -13.035156 6.25 -12.890625 C 5.851562 -12.753906 5.503906 -12.601562 5.203125 -12.4375 C 4.910156 -12.28125 4.632812 -12.128906 4.375 -11.984375 C 4.113281 -11.847656 3.8125 -11.78125 3.46875 -11.78125 C 3.164062 -11.78125 2.910156 -11.851562 2.703125 -12 C 2.503906 -12.15625 2.335938 -12.335938 2.203125 -12.546875 Z M 1.421875 -13.9375 "/></g></g></g><g fill="#321313" fill-opacity="1"><g transform="translate(221.770659, 199.309493)"><g><path d="M 7.09375 -13.359375 L 8.015625 -13.359375 C 8.785156 -13.359375 9.34375 -13.601562 9.6875 -14.09375 L 15.453125 -21.796875 C 15.722656 -22.160156 16.019531 -22.410156 16.34375 -22.546875 C 16.664062 -22.691406 17.0625 -22.765625 17.53125 -22.765625 L 21.625 -22.765625 L 14.375 -13.421875 C 13.894531 -12.816406 13.40625 -12.382812 12.90625 -12.125 C 13.269531 -11.976562 13.597656 -11.785156 13.890625 -11.546875 C 14.191406 -11.316406 14.476562 -11.007812 14.75 -10.625 L 22.1875 0 L 18 0 C 17.71875 0 17.476562 -0.0195312 17.28125 -0.0625 C 17.09375 -0.101562 16.925781 -0.160156 16.78125 -0.234375 C 16.632812 -0.304688 16.507812 -0.394531 16.40625 -0.5 C 16.300781 -0.613281 16.203125 -0.742188 16.109375 -0.890625 L 10.265625 -9.078125 C 10.066406 -9.359375 9.828125 -9.5625 9.546875 -9.6875 C 9.273438 -9.8125 8.894531 -9.875 8.40625 -9.875 L 7.09375 -9.875 L 7.09375 0 L 2.390625 0 L 2.390625 -22.765625 L 7.09375 -22.765625 Z M 7.09375 -13.359375 "/></g></g></g><g fill="#321313" fill-opacity="1"><g transform="translate(243.576072, 199.309493)"><g><path d="M 6.25 -16.171875 L 6.25 0 L 1.90625 0 L 1.90625 -16.171875 Z M 6.765625 -20.765625 C 6.765625 -20.398438 6.691406 -20.0625 6.546875 -19.75 C 6.398438 -19.4375 6.203125 -19.160156 5.953125 -18.921875 C 5.703125 -18.679688 5.410156 -18.492188 5.078125 -18.359375 C 4.753906 -18.222656 4.40625 -18.15625 4.03125 -18.15625 C 3.675781 -18.15625 3.335938 -18.222656 3.015625 -18.359375 C 2.703125 -18.492188 2.421875 -18.679688 2.171875 -18.921875 C 1.929688 -19.160156 1.738281 -19.4375 1.59375 -19.75 C 1.457031 -20.0625 1.390625 -20.398438 1.390625 -20.765625 C 1.390625 -21.128906 1.457031 -21.472656 1.59375 -21.796875 C 1.738281 -22.117188 1.929688 -22.398438 2.171875 -22.640625 C 2.421875 -22.878906 2.703125 -23.066406 3.015625 -23.203125 C 3.335938 -23.335938 3.675781 -23.40625 4.03125 -23.40625 C 4.40625 -23.40625 4.753906 -23.335938 5.078125 -23.203125 C 5.410156 -23.066406 5.703125 -22.878906 5.953125 -22.640625 C 6.203125 -22.398438 6.398438 -22.117188 6.546875 -21.796875 C 6.691406 -21.472656 6.765625 -21.128906 6.765625 -20.765625 Z M 6.765625 -20.765625 "/></g></g></g><g fill="#321313" fill-opacity="1"><g transform="translate(251.733487, 199.309493)"><g><path d="M 7.375 0.25 C 6.644531 0.25 5.992188 0.144531 5.421875 -0.0625 C 4.859375 -0.28125 4.382812 -0.585938 4 -0.984375 C 3.613281 -1.378906 3.320312 -1.859375 3.125 -2.421875 C 2.925781 -2.992188 2.828125 -3.632812 2.828125 -4.34375 L 2.828125 -13.0625 L 1.296875 -13.0625 C 1.066406 -13.0625 0.867188 -13.132812 0.703125 -13.28125 C 0.546875 -13.425781 0.46875 -13.648438 0.46875 -13.953125 L 0.46875 -15.640625 L 3.0625 -16.109375 L 3.9375 -20.296875 C 4.050781 -20.765625 4.367188 -21 4.890625 -21 L 7.15625 -21 L 7.15625 -16.078125 L 11.328125 -16.078125 L 11.328125 -13.0625 L 7.15625 -13.0625 L 7.15625 -4.625 C 7.15625 -4.175781 7.257812 -3.820312 7.46875 -3.5625 C 7.6875 -3.300781 7.992188 -3.171875 8.390625 -3.171875 C 8.597656 -3.171875 8.773438 -3.191406 8.921875 -3.234375 C 9.066406 -3.285156 9.191406 -3.335938 9.296875 -3.390625 C 9.398438 -3.453125 9.492188 -3.503906 9.578125 -3.546875 C 9.671875 -3.597656 9.769531 -3.625 9.875 -3.625 C 10 -3.625 10.101562 -3.59375 10.1875 -3.53125 C 10.269531 -3.476562 10.351562 -3.382812 10.4375 -3.25 L 11.734375 -1.171875 C 11.140625 -0.703125 10.460938 -0.347656 9.703125 -0.109375 C 8.953125 0.128906 8.175781 0.25 7.375 0.25 Z M 7.375 0.25 "/></g></g></g><g fill="#321313" fill-opacity="1"><g transform="translate(263.577434, 199.309493)"><g><path d="M 13.515625 -12.5625 C 13.390625 -12.394531 13.265625 -12.265625 13.140625 -12.171875 C 13.015625 -12.085938 12.835938 -12.046875 12.609375 -12.046875 C 12.398438 -12.046875 12.195312 -12.101562 12 -12.21875 C 11.8125 -12.34375 11.59375 -12.472656 11.34375 -12.609375 C 11.09375 -12.753906 10.796875 -12.882812 10.453125 -13 C 10.109375 -13.125 9.675781 -13.1875 9.15625 -13.1875 C 8.507812 -13.1875 7.945312 -13.066406 7.46875 -12.828125 C 7 -12.597656 6.601562 -12.265625 6.28125 -11.828125 C 5.96875 -11.390625 5.734375 -10.851562 5.578125 -10.21875 C 5.429688 -9.59375 5.359375 -8.890625 5.359375 -8.109375 C 5.359375 -6.453125 5.691406 -5.1875 6.359375 -4.3125 C 7.023438 -3.4375 7.929688 -3 9.078125 -3 C 9.472656 -3 9.816406 -3.03125 10.109375 -3.09375 C 10.398438 -3.164062 10.648438 -3.253906 10.859375 -3.359375 C 11.078125 -3.460938 11.265625 -3.578125 11.421875 -3.703125 C 11.578125 -3.828125 11.722656 -3.941406 11.859375 -4.046875 C 12.003906 -4.148438 12.144531 -4.234375 12.28125 -4.296875 C 12.425781 -4.367188 12.585938 -4.40625 12.765625 -4.40625 C 13.097656 -4.40625 13.359375 -4.28125 13.546875 -4.03125 L 14.796875 -2.46875 C 14.335938 -1.925781 13.84375 -1.476562 13.3125 -1.125 C 12.789062 -0.78125 12.25 -0.503906 11.6875 -0.296875 C 11.132812 -0.0976562 10.566406 0.0351562 9.984375 0.109375 C 9.410156 0.191406 8.84375 0.234375 8.28125 0.234375 C 7.289062 0.234375 6.347656 0.0507812 5.453125 -0.3125 C 4.566406 -0.6875 3.789062 -1.226562 3.125 -1.9375 C 2.457031 -2.65625 1.925781 -3.53125 1.53125 -4.5625 C 1.132812 -5.601562 0.9375 -6.785156 0.9375 -8.109375 C 0.9375 -9.296875 1.109375 -10.394531 1.453125 -11.40625 C 1.804688 -12.414062 2.316406 -13.289062 2.984375 -14.03125 C 3.648438 -14.78125 4.476562 -15.363281 5.46875 -15.78125 C 6.457031 -16.207031 7.597656 -16.421875 8.890625 -16.421875 C 10.128906 -16.421875 11.210938 -16.222656 12.140625 -15.828125 C 13.066406 -15.429688 13.90625 -14.859375 14.65625 -14.109375 Z M 13.515625 -12.5625 "/></g></g></g><g fill="#321313" fill-opacity="1"><g transform="translate(278.76278, 199.309493)"><g><path d="M 6.125 -14.59375 C 6.425781 -14.863281 6.738281 -15.109375 7.0625 -15.328125 C 7.394531 -15.554688 7.742188 -15.75 8.109375 -15.90625 C 8.484375 -16.070312 8.882812 -16.195312 9.3125 -16.28125 C 9.738281 -16.375 10.195312 -16.421875 10.6875 -16.421875 C 11.5625 -16.421875 12.335938 -16.269531 13.015625 -15.96875 C 13.703125 -15.664062 14.273438 -15.242188 14.734375 -14.703125 C 15.203125 -14.160156 15.550781 -13.507812 15.78125 -12.75 C 16.019531 -12 16.140625 -11.175781 16.140625 -10.28125 L 16.140625 0 L 11.828125 0 L 11.828125 -10.28125 C 11.828125 -11.175781 11.617188 -11.867188 11.203125 -12.359375 C 10.785156 -12.859375 10.164062 -13.109375 9.34375 -13.109375 C 8.738281 -13.109375 8.171875 -12.976562 7.640625 -12.71875 C 7.109375 -12.457031 6.601562 -12.09375 6.125 -11.625 L 6.125 0 L 1.78125 0 L 1.78125 -23.390625 L 6.125 -23.390625 Z M 6.125 -14.59375 "/></g></g></g><g fill="#321313" fill-opacity="1"><g transform="translate(296.552229, 199.309493)"><g><path d="M 12.046875 -10 C 12.046875 -10.445312 11.984375 -10.875 11.859375 -11.28125 C 11.742188 -11.6875 11.554688 -12.046875 11.296875 -12.359375 C 11.035156 -12.671875 10.703125 -12.914062 10.296875 -13.09375 C 9.898438 -13.28125 9.425781 -13.375 8.875 -13.375 C 7.84375 -13.375 7.03125 -13.082031 6.4375 -12.5 C 5.851562 -11.914062 5.472656 -11.082031 5.296875 -10 Z M 5.234375 -7.421875 C 5.367188 -5.898438 5.800781 -4.789062 6.53125 -4.09375 C 7.257812 -3.394531 8.207031 -3.046875 9.375 -3.046875 C 9.976562 -3.046875 10.492188 -3.113281 10.921875 -3.25 C 11.359375 -3.394531 11.738281 -3.550781 12.0625 -3.71875 C 12.394531 -3.894531 12.691406 -4.050781 12.953125 -4.1875 C 13.222656 -4.332031 13.492188 -4.40625 13.765625 -4.40625 C 14.097656 -4.40625 14.359375 -4.28125 14.546875 -4.03125 L 15.796875 -2.46875 C 15.335938 -1.925781 14.828125 -1.476562 14.265625 -1.125 C 13.710938 -0.78125 13.140625 -0.503906 12.546875 -0.296875 C 11.953125 -0.0976562 11.351562 0.0351562 10.75 0.109375 C 10.144531 0.191406 9.554688 0.234375 8.984375 0.234375 C 7.859375 0.234375 6.804688 0.0507812 5.828125 -0.3125 C 4.847656 -0.6875 3.992188 -1.238281 3.265625 -1.96875 C 2.546875 -2.695312 1.972656 -3.597656 1.546875 -4.671875 C 1.128906 -5.753906 0.921875 -7.003906 0.921875 -8.421875 C 0.921875 -9.523438 1.101562 -10.5625 1.46875 -11.53125 C 1.832031 -12.5 2.351562 -13.34375 3.03125 -14.0625 C 3.707031 -14.789062 4.53125 -15.363281 5.5 -15.78125 C 6.476562 -16.207031 7.578125 -16.421875 8.796875 -16.421875 C 9.835938 -16.421875 10.789062 -16.253906 11.65625 -15.921875 C 12.53125 -15.597656 13.285156 -15.117188 13.921875 -14.484375 C 14.554688 -13.859375 15.046875 -13.085938 15.390625 -12.171875 C 15.742188 -11.265625 15.921875 -10.222656 15.921875 -9.046875 C 15.921875 -8.722656 15.90625 -8.457031 15.875 -8.25 C 15.84375 -8.039062 15.789062 -7.875 15.71875 -7.75 C 15.644531 -7.625 15.546875 -7.535156 15.421875 -7.484375 C 15.296875 -7.441406 15.132812 -7.421875 14.9375 -7.421875 Z M 5.234375 -7.421875 "/></g></g></g><g fill="#321313" fill-opacity="1"><g transform="translate(313.369071, 199.309493)"><g><path d="M 5.796875 -14.296875 C 6.128906 -14.609375 6.46875 -14.894531 6.8125 -15.15625 C 7.164062 -15.414062 7.535156 -15.640625 7.921875 -15.828125 C 8.316406 -16.015625 8.742188 -16.160156 9.203125 -16.265625 C 9.660156 -16.367188 10.15625 -16.421875 10.6875 -16.421875 C 11.5625 -16.421875 12.335938 -16.269531 13.015625 -15.96875 C 13.703125 -15.664062 14.273438 -15.242188 14.734375 -14.703125 C 15.203125 -14.160156 15.550781 -13.507812 15.78125 -12.75 C 16.019531 -12 16.140625 -11.175781 16.140625 -10.28125 L 16.140625 0 L 11.828125 0 L 11.828125 -10.28125 C 11.828125 -11.175781 11.617188 -11.867188 11.203125 -12.359375 C 10.785156 -12.859375 10.164062 -13.109375 9.34375 -13.109375 C 8.738281 -13.109375 8.171875 -12.976562 7.640625 -12.71875 C 7.109375 -12.457031 6.601562 -12.09375 6.125 -11.625 L 6.125 0 L 1.78125 0 L 1.78125 -16.171875 L 4.453125 -16.171875 C 4.992188 -16.171875 5.351562 -15.921875 5.53125 -15.421875 Z M 5.796875 -14.296875 "/></g></g></g></svg>