<svg xmlns="http://www.w3.org/2000/svg" xmlns:xlink="http://www.w3.org/1999/xlink" width="500" zoomAndPan="magnify" viewBox="0 0 375 374.999991" height="500" preserveAspectRatio="xMidYMid meet" version="1.0"><defs><g/></defs><path fill="#f4991a" d="M 190.082031 190.492188 C 190.113281 184.542969 190.148438 178.390625 190.179688 177.722656 C 190.214844 176.667969 190.285156 175.730469 190.339844 174.917969 C 198.699219 173.140625 205.027344 164.746094 205.027344 154.652344 C 205.027344 143.277344 196.972656 120.957031 187.035156 120.957031 C 186.195312 120.957031 185.378906 121.125 184.574219 121.417969 L 184.550781 121.421875 C 184.28125 121.527344 184.015625 121.644531 183.75 121.769531 L 183.703125 121.792969 C 183.441406 121.925781 183.183594 122.070312 182.925781 122.230469 L 182.867188 122.261719 C 182.609375 122.421875 182.359375 122.589844 182.105469 122.773438 L 182.046875 122.816406 C 181.796875 123.007812 181.550781 123.207031 181.304688 123.414062 L 181.25 123.460938 C 181 123.679688 180.753906 123.898438 180.515625 124.136719 L 180.46875 124.1875 C 180.222656 124.425781 179.984375 124.675781 179.738281 124.941406 L 179.714844 124.96875 C 177.210938 127.738281 175.007812 131.660156 173.269531 135.929688 L 173.238281 135.996094 C 173.09375 136.359375 172.945312 136.726562 172.808594 137.089844 C 172.777344 137.175781 172.742188 137.257812 172.710938 137.339844 C 172.585938 137.671875 172.46875 138 172.347656 138.332031 C 172.304688 138.453125 172.257812 138.578125 172.214844 138.699219 C 172.101562 139.007812 172 139.316406 171.898438 139.625 C 171.84375 139.773438 171.796875 139.917969 171.75 140.066406 C 171.652344 140.355469 171.566406 140.648438 171.476562 140.933594 C 171.421875 141.109375 171.367188 141.277344 171.3125 141.449219 C 171.234375 141.71875 171.152344 141.992188 171.074219 142.261719 C 171.019531 142.449219 170.964844 142.632812 170.917969 142.824219 C 170.839844 143.082031 170.773438 143.339844 170.703125 143.589844 C 170.65625 143.792969 170.601562 143.996094 170.554688 144.195312 C 170.488281 144.4375 170.429688 144.683594 170.375 144.921875 C 170.320312 145.132812 170.273438 145.34375 170.226562 145.550781 C 170.171875 145.785156 170.117188 146.011719 170.070312 146.246094 C 170.023438 146.460938 169.980469 146.675781 169.9375 146.890625 C 169.890625 147.113281 169.84375 147.332031 169.800781 147.546875 C 169.757812 147.769531 169.722656 147.992188 169.679688 148.207031 C 169.644531 148.414062 169.609375 148.625 169.574219 148.828125 C 169.539062 149.054688 169.5 149.277344 169.472656 149.496094 C 169.441406 149.6875 169.410156 149.886719 169.382812 150.078125 C 169.351562 150.304688 169.328125 150.53125 169.296875 150.757812 C 169.273438 150.933594 169.25 151.113281 169.234375 151.292969 C 169.207031 151.523438 169.183594 151.757812 169.167969 151.992188 C 169.15625 152.148438 169.136719 152.308594 169.125 152.464844 C 169.105469 152.714844 169.09375 152.953125 169.082031 153.199219 C 169.070312 153.332031 169.066406 153.460938 169.058594 153.585938 C 169.042969 153.953125 169.035156 154.304688 169.035156 154.652344 C 169.035156 155.230469 169.058594 155.8125 169.101562 156.378906 C 169.105469 156.453125 169.113281 156.53125 169.117188 156.601562 C 169.160156 157.144531 169.226562 157.679688 169.304688 158.210938 C 169.320312 158.300781 169.335938 158.382812 169.347656 158.472656 C 169.4375 159.003906 169.539062 159.527344 169.65625 160.035156 C 169.675781 160.105469 169.691406 160.171875 169.710938 160.242188 C 169.835938 160.773438 169.984375 161.308594 170.152344 161.820312 L 170.160156 161.832031 C 170.339844 162.382812 170.535156 162.929688 170.757812 163.453125 L 170.757812 163.464844 C 170.972656 163.992188 171.210938 164.496094 171.460938 164.992188 L 171.492188 165.054688 C 171.75 165.554688 172.019531 166.039062 172.304688 166.503906 L 172.3125 166.507812 C 174.96875 170.828125 179.019531 173.917969 183.722656 174.917969 C 183.773438 175.730469 183.847656 176.667969 183.882812 177.722656 C 183.914062 178.390625 183.941406 184.542969 183.976562 190.492188 C 169.398438 189.421875 156.9375 180.746094 150.546875 168.417969 C 153.476562 162.765625 155.125 156.355469 155.125 149.546875 C 155.125 142.742188 153.476562 136.324219 150.546875 130.675781 C 157.382812 117.488281 171.152344 108.476562 187.027344 108.476562 C 203.195312 108.476562 217.183594 117.816406 223.878906 131.402344 C 221.195312 136.863281 219.6875 143.003906 219.6875 149.503906 C 219.6875 156.015625 221.207031 162.175781 223.902344 167.644531 C 217.636719 180.382812 204.960938 189.398438 190.082031 190.492188 " fill-opacity="1" fill-rule="nonzero"/><path fill="#321313" d="M 117.109375 190.492188 C 117.144531 184.234375 117.183594 177.363281 117.210938 176.65625 C 117.253906 175.484375 117.339844 174.457031 117.390625 173.589844 C 123.292969 171.429688 127.675781 163.710938 127.765625 154.460938 L 127.746094 154.460938 C 127.746094 154.3125 127.757812 154.160156 127.746094 154.007812 C 126.914062 143.9375 126.066406 133.847656 125.222656 123.785156 C 125.066406 121.847656 124.535156 120.300781 124.039062 120.300781 C 123.542969 120.3125 123.082031 121.890625 123.003906 123.832031 C 122.617188 133.925781 122.226562 144.03125 121.839844 154.136719 C 121.832031 154.25 121.851562 154.351562 121.855469 154.460938 L 120.582031 154.460938 C 120.589844 154.335938 120.605469 154.222656 120.601562 154.089844 C 120.023438 143.992188 119.453125 133.898438 118.878906 123.808594 C 118.773438 121.867188 118.273438 120.300781 117.78125 120.292969 C 117.289062 120.292969 116.785156 121.855469 116.664062 123.796875 C 116.003906 133.878906 115.347656 143.972656 114.679688 154.066406 C 114.671875 154.203125 114.6875 154.328125 114.691406 154.460938 L 113.425781 154.460938 C 113.429688 154.339844 113.445312 154.226562 113.441406 154.109375 C 112.917969 144.003906 112.390625 133.902344 111.859375 123.808594 C 111.761719 121.871094 111.273438 120.300781 110.78125 120.292969 C 110.285156 120.292969 109.78125 121.855469 109.644531 123.796875 C 108.9375 133.875 108.234375 143.964844 107.527344 154.054688 C 107.515625 154.191406 107.527344 154.328125 107.53125 154.460938 L 106.265625 154.460938 C 106.269531 154.351562 106.285156 154.25 106.285156 154.136719 C 105.917969 144.769531 105.558594 135.398438 105.199219 126.035156 L 105.199219 126.027344 C 105.167969 125.296875 105.144531 124.5625 105.113281 123.832031 C 105.035156 121.890625 104.574219 120.3125 104.082031 120.300781 L 104.074219 120.300781 C 103.585938 120.300781 103.054688 121.847656 102.898438 123.785156 C 102.054688 133.847656 101.207031 143.9375 100.371094 154.007812 C 100.359375 154.160156 100.367188 154.3125 100.375 154.460938 L 100.359375 154.460938 C 100.363281 155.101562 100.394531 155.726562 100.4375 156.34375 C 100.457031 156.546875 100.480469 156.75 100.496094 156.953125 C 100.535156 157.359375 100.582031 157.773438 100.636719 158.175781 C 100.671875 158.417969 100.710938 158.652344 100.746094 158.886719 C 100.804688 159.238281 100.871094 159.597656 100.945312 159.945312 C 100.996094 160.195312 101.046875 160.441406 101.109375 160.683594 C 101.183594 161.007812 101.265625 161.324219 101.351562 161.636719 C 101.421875 161.894531 101.492188 162.144531 101.566406 162.390625 C 101.652344 162.675781 101.753906 162.953125 101.851562 163.234375 C 101.941406 163.488281 102.027344 163.753906 102.125 164.011719 L 102.152344 164.074219 C 102.46875 164.890625 102.832031 165.660156 103.222656 166.394531 C 103.28125 166.507812 103.339844 166.628906 103.398438 166.738281 C 103.582031 167.066406 103.773438 167.386719 103.972656 167.699219 C 104.035156 167.800781 104.097656 167.898438 104.160156 168 C 104.371094 168.320312 104.585938 168.625 104.8125 168.929688 C 104.863281 168.996094 104.914062 169.0625 104.960938 169.128906 C 105.210938 169.445312 105.464844 169.757812 105.726562 170.054688 L 105.742188 170.074219 C 107.207031 171.707031 108.890625 172.914062 110.734375 173.589844 C 110.769531 174.15625 110.816406 174.796875 110.859375 175.496094 C 110.863281 175.585938 110.871094 175.675781 110.875 175.765625 C 110.890625 176.054688 110.90625 176.347656 110.914062 176.65625 C 110.941406 177.363281 110.980469 184.234375 111.015625 190.492188 C 89.757812 188.933594 72.992188 171.203125 72.992188 149.546875 C 72.992188 126.863281 91.378906 108.476562 114.058594 108.476562 C 129.933594 108.476562 143.710938 117.488281 150.546875 130.675781 C 147.617188 136.324219 145.960938 142.742188 145.960938 149.546875 C 145.960938 156.351562 147.617188 162.765625 150.546875 168.417969 C 144.148438 180.746094 131.6875 189.421875 117.109375 190.492188 " fill-opacity="1" fill-rule="nonzero"/><path fill="#321313" d="M 150.546875 168.417969 C 147.617188 162.765625 145.960938 156.351562 145.960938 149.546875 C 145.960938 142.742188 147.617188 136.324219 150.546875 130.675781 C 153.476562 136.324219 155.125 142.742188 155.125 149.546875 C 155.125 156.355469 153.476562 162.765625 150.546875 168.417969 " fill-opacity="1" fill-rule="nonzero"/><path fill="#f2ead3" d="M 261.980469 190.542969 C 261.96875 188.214844 261.992188 186.039062 262.054688 184.113281 C 262.058594 183.84375 262.066406 182.839844 262.078125 181.453125 L 263.929688 181.453125 C 266.296875 181.453125 268.21875 179.539062 268.21875 177.171875 C 268.21875 177.171875 268.242188 118.027344 261.363281 118.027344 C 260.660156 118.027344 259.988281 118.226562 259.390625 118.546875 C 258.914062 118.804688 258.488281 119.140625 258.136719 119.550781 L 258.015625 119.695312 C 257.921875 119.808594 257.835938 119.921875 257.753906 120.046875 C 257.644531 120.222656 257.542969 120.402344 257.453125 120.59375 C 257.425781 120.660156 257.402344 120.734375 257.375 120.808594 C 257.304688 120.976562 257.25 121.148438 257.210938 121.320312 C 257.191406 121.398438 257.171875 121.472656 257.160156 121.550781 C 257.113281 121.800781 257.078125 122.046875 257.078125 122.316406 C 257.078125 122.316406 257.179688 183.519531 257.191406 184.113281 C 257.246094 186.007812 257.269531 188.136719 257.261719 190.414062 C 242.59375 189.179688 230.117188 180.234375 223.902344 167.644531 C 226.589844 162.1875 228.101562 156.046875 228.101562 149.546875 C 228.101562 143.035156 226.582031 136.875 223.878906 131.402344 C 230.578125 117.800781 244.574219 108.4375 260.753906 108.4375 C 283.441406 108.4375 301.828125 126.824219 301.828125 149.503906 C 301.828125 171.777344 284.09375 189.894531 261.980469 190.542969 " fill-opacity="1" fill-rule="nonzero"/><path fill="#f4991a" d="M 223.902344 167.644531 C 221.207031 162.175781 219.6875 156.015625 219.6875 149.503906 C 219.6875 143.003906 221.195312 136.863281 223.878906 131.402344 C 226.582031 136.875 228.101562 143.035156 228.101562 149.546875 C 228.101562 156.046875 226.589844 162.1875 223.902344 167.644531 " fill-opacity="1" fill-rule="nonzero"/><g fill="#f4991a" fill-opacity="1"><g transform="translate(93.192456, 280.540294)"><g><path d="M 1.921875 -2.96875 L 1.921875 0 L 0.96875 0 L 0.96875 -7.125 L 2.96875 -7.125 C 3.425781 -7.125 3.816406 -7.078125 4.140625 -6.984375 C 4.472656 -6.890625 4.742188 -6.753906 4.953125 -6.578125 C 5.171875 -6.410156 5.328125 -6.203125 5.421875 -5.953125 C 5.523438 -5.710938 5.578125 -5.441406 5.578125 -5.140625 C 5.578125 -4.890625 5.535156 -4.65625 5.453125 -4.4375 C 5.378906 -4.21875 5.265625 -4.019531 5.109375 -3.84375 C 4.960938 -3.675781 4.78125 -3.53125 4.5625 -3.40625 C 4.351562 -3.28125 4.109375 -3.1875 3.828125 -3.125 C 3.953125 -3.0625 4.0625 -2.960938 4.15625 -2.828125 L 6.21875 0 L 5.375 0 C 5.195312 0 5.066406 -0.0664062 4.984375 -0.203125 L 3.140625 -2.75 C 3.078125 -2.820312 3.015625 -2.875 2.953125 -2.90625 C 2.890625 -2.945312 2.789062 -2.96875 2.65625 -2.96875 Z M 1.921875 -3.671875 L 2.9375 -3.671875 C 3.21875 -3.671875 3.460938 -3.703125 3.671875 -3.765625 C 3.890625 -3.835938 4.066406 -3.9375 4.203125 -4.0625 C 4.347656 -4.1875 4.457031 -4.332031 4.53125 -4.5 C 4.601562 -4.675781 4.640625 -4.867188 4.640625 -5.078125 C 4.640625 -5.503906 4.5 -5.820312 4.21875 -6.03125 C 3.945312 -6.25 3.53125 -6.359375 2.96875 -6.359375 L 1.921875 -6.359375 Z M 1.921875 -3.671875 "/></g></g></g><g fill="#f4991a" fill-opacity="1"><g transform="translate(104.759842, 280.540294)"><g><path d="M 5.25 -7.125 L 5.25 -6.328125 L 1.828125 -6.328125 L 1.828125 -3.96875 L 4.59375 -3.96875 L 4.59375 -3.21875 L 1.828125 -3.21875 L 1.828125 -0.78125 L 5.25 -0.78125 L 5.25 0 L 0.859375 0 L 0.859375 -7.125 Z M 5.25 -7.125 "/></g></g></g><g fill="#f4991a" fill-opacity="1"><g transform="translate(115.701179, 280.540294)"><g><path d="M 0.046875 -7.125 L 0.8125 -7.125 C 0.894531 -7.125 0.960938 -7.097656 1.015625 -7.046875 C 1.066406 -7.003906 1.109375 -6.953125 1.140625 -6.890625 L 3.15625 -1.875 C 3.195312 -1.757812 3.234375 -1.632812 3.265625 -1.5 C 3.304688 -1.363281 3.347656 -1.226562 3.390625 -1.09375 C 3.421875 -1.226562 3.453125 -1.363281 3.484375 -1.5 C 3.515625 -1.632812 3.554688 -1.757812 3.609375 -1.875 L 5.609375 -6.890625 C 5.628906 -6.941406 5.664062 -6.992188 5.71875 -7.046875 C 5.78125 -7.097656 5.851562 -7.125 5.9375 -7.125 L 6.71875 -7.125 L 3.8125 0 L 2.9375 0 Z M 0.046875 -7.125 "/></g></g></g><g fill="#f4991a" fill-opacity="1"><g transform="translate(127.626318, 280.540294)"><g><path d="M 2 0 L 1.046875 0 L 1.046875 -7.125 L 2 -7.125 Z M 2 0 "/></g></g></g><g fill="#f4991a" fill-opacity="1"><g transform="translate(135.844809, 280.540294)"><g><path d="M 5.25 -7.125 L 5.25 -6.328125 L 1.828125 -6.328125 L 1.828125 -3.96875 L 4.59375 -3.96875 L 4.59375 -3.21875 L 1.828125 -3.21875 L 1.828125 -0.78125 L 5.25 -0.78125 L 5.25 0 L 0.859375 0 L 0.859375 -7.125 Z M 5.25 -7.125 "/></g></g></g><g fill="#f4991a" fill-opacity="1"><g transform="translate(146.786147, 280.540294)"><g><path d="M 0.0625 -7.125 L 0.875 -7.125 C 0.957031 -7.125 1.023438 -7.097656 1.078125 -7.046875 C 1.140625 -7.003906 1.179688 -6.953125 1.203125 -6.890625 L 2.671875 -1.9375 C 2.691406 -1.851562 2.710938 -1.757812 2.734375 -1.65625 C 2.753906 -1.550781 2.773438 -1.441406 2.796875 -1.328125 C 2.828125 -1.441406 2.851562 -1.550781 2.875 -1.65625 C 2.894531 -1.757812 2.921875 -1.851562 2.953125 -1.9375 L 4.625 -6.890625 C 4.644531 -6.941406 4.679688 -6.992188 4.734375 -7.046875 C 4.796875 -7.097656 4.867188 -7.125 4.953125 -7.125 L 5.234375 -7.125 C 5.316406 -7.125 5.382812 -7.097656 5.4375 -7.046875 C 5.5 -7.003906 5.539062 -6.953125 5.5625 -6.890625 L 7.21875 -1.9375 C 7.28125 -1.769531 7.335938 -1.570312 7.390625 -1.34375 C 7.398438 -1.457031 7.414062 -1.5625 7.4375 -1.65625 C 7.457031 -1.757812 7.476562 -1.851562 7.5 -1.9375 L 8.984375 -6.890625 C 8.992188 -6.953125 9.023438 -7.003906 9.078125 -7.046875 C 9.140625 -7.097656 9.210938 -7.125 9.296875 -7.125 L 10.046875 -7.125 L 7.828125 0 L 6.96875 0 L 5.15625 -5.4375 C 5.125 -5.53125 5.09375 -5.644531 5.0625 -5.78125 C 5.039062 -5.71875 5.023438 -5.65625 5.015625 -5.59375 C 5.003906 -5.53125 4.988281 -5.476562 4.96875 -5.4375 L 3.15625 0 L 2.296875 0 Z M 0.0625 -7.125 "/></g></g></g><g fill="#f4991a" fill-opacity="1"><g transform="translate(162.080059, 280.540294)"><g><path d="M 4.515625 -6 C 4.484375 -5.957031 4.453125 -5.921875 4.421875 -5.890625 C 4.390625 -5.867188 4.34375 -5.859375 4.28125 -5.859375 C 4.226562 -5.859375 4.164062 -5.882812 4.09375 -5.9375 C 4.019531 -6 3.925781 -6.0625 3.8125 -6.125 C 3.695312 -6.195312 3.554688 -6.257812 3.390625 -6.3125 C 3.234375 -6.375 3.039062 -6.40625 2.8125 -6.40625 C 2.59375 -6.40625 2.398438 -6.375 2.234375 -6.3125 C 2.078125 -6.25 1.941406 -6.164062 1.828125 -6.0625 C 1.710938 -5.96875 1.625 -5.851562 1.5625 -5.71875 C 1.507812 -5.59375 1.484375 -5.453125 1.484375 -5.296875 C 1.484375 -5.097656 1.53125 -4.929688 1.625 -4.796875 C 1.726562 -4.660156 1.859375 -4.546875 2.015625 -4.453125 C 2.179688 -4.367188 2.363281 -4.289062 2.5625 -4.21875 C 2.769531 -4.15625 2.976562 -4.085938 3.1875 -4.015625 C 3.40625 -3.941406 3.613281 -3.859375 3.8125 -3.765625 C 4.019531 -3.671875 4.203125 -3.550781 4.359375 -3.40625 C 4.523438 -3.269531 4.65625 -3.101562 4.75 -2.90625 C 4.851562 -2.707031 4.90625 -2.457031 4.90625 -2.15625 C 4.90625 -1.84375 4.851562 -1.550781 4.75 -1.28125 C 4.644531 -1.007812 4.488281 -0.769531 4.28125 -0.5625 C 4.070312 -0.363281 3.816406 -0.207031 3.515625 -0.09375 C 3.222656 0.0195312 2.890625 0.078125 2.515625 0.078125 C 2.054688 0.078125 1.632812 -0.00390625 1.25 -0.171875 C 0.875 -0.335938 0.550781 -0.5625 0.28125 -0.84375 L 0.5625 -1.3125 C 0.59375 -1.34375 0.625 -1.367188 0.65625 -1.390625 C 0.695312 -1.421875 0.742188 -1.4375 0.796875 -1.4375 C 0.859375 -1.4375 0.929688 -1.398438 1.015625 -1.328125 C 1.109375 -1.253906 1.222656 -1.171875 1.359375 -1.078125 C 1.492188 -0.984375 1.65625 -0.898438 1.84375 -0.828125 C 2.039062 -0.753906 2.273438 -0.71875 2.546875 -0.71875 C 2.773438 -0.71875 2.976562 -0.75 3.15625 -0.8125 C 3.332031 -0.875 3.484375 -0.960938 3.609375 -1.078125 C 3.734375 -1.191406 3.828125 -1.328125 3.890625 -1.484375 C 3.960938 -1.648438 4 -1.828125 4 -2.015625 C 4 -2.234375 3.945312 -2.410156 3.84375 -2.546875 C 3.75 -2.679688 3.625 -2.796875 3.46875 -2.890625 C 3.3125 -2.984375 3.128906 -3.0625 2.921875 -3.125 C 2.722656 -3.195312 2.515625 -3.265625 2.296875 -3.328125 C 2.085938 -3.398438 1.878906 -3.476562 1.671875 -3.5625 C 1.460938 -3.65625 1.28125 -3.769531 1.125 -3.90625 C 0.96875 -4.050781 0.835938 -4.226562 0.734375 -4.4375 C 0.640625 -4.65625 0.59375 -4.921875 0.59375 -5.234375 C 0.59375 -5.492188 0.640625 -5.738281 0.734375 -5.96875 C 0.835938 -6.207031 0.984375 -6.414062 1.171875 -6.59375 C 1.359375 -6.78125 1.585938 -6.925781 1.859375 -7.03125 C 2.128906 -7.144531 2.441406 -7.203125 2.796875 -7.203125 C 3.191406 -7.203125 3.550781 -7.140625 3.875 -7.015625 C 4.207031 -6.890625 4.5 -6.707031 4.75 -6.46875 Z M 4.515625 -6 "/></g></g></g><g fill="#f4991a" fill-opacity="1"><g transform="translate(172.514581, 280.540294)"><g/></g></g><g fill="#f4991a" fill-opacity="1"><g transform="translate(179.600196, 280.540294)"><g><path d="M 7.03125 -3.5625 C 7.03125 -3.019531 6.945312 -2.53125 6.78125 -2.09375 C 6.613281 -1.664062 6.375 -1.296875 6.0625 -0.984375 C 5.757812 -0.671875 5.390625 -0.425781 4.953125 -0.25 C 4.523438 -0.0820312 4.050781 0 3.53125 0 L 0.859375 0 L 0.859375 -7.125 L 3.53125 -7.125 C 4.050781 -7.125 4.523438 -7.035156 4.953125 -6.859375 C 5.390625 -6.691406 5.757812 -6.453125 6.0625 -6.140625 C 6.375 -5.828125 6.613281 -5.453125 6.78125 -5.015625 C 6.945312 -4.578125 7.03125 -4.09375 7.03125 -3.5625 Z M 6.046875 -3.5625 C 6.046875 -4 5.984375 -4.390625 5.859375 -4.734375 C 5.742188 -5.078125 5.578125 -5.367188 5.359375 -5.609375 C 5.140625 -5.847656 4.875 -6.03125 4.5625 -6.15625 C 4.25 -6.28125 3.90625 -6.34375 3.53125 -6.34375 L 1.828125 -6.34375 L 1.828125 -0.78125 L 3.53125 -0.78125 C 3.90625 -0.78125 4.25 -0.84375 4.5625 -0.96875 C 4.875 -1.09375 5.140625 -1.273438 5.359375 -1.515625 C 5.578125 -1.753906 5.742188 -2.046875 5.859375 -2.390625 C 5.984375 -2.734375 6.046875 -3.125 6.046875 -3.5625 Z M 6.046875 -3.5625 "/></g></g></g><g fill="#f4991a" fill-opacity="1"><g transform="translate(192.250769, 280.540294)"><g><path d="M 5.25 -7.125 L 5.25 -6.328125 L 1.828125 -6.328125 L 1.828125 -3.96875 L 4.59375 -3.96875 L 4.59375 -3.21875 L 1.828125 -3.21875 L 1.828125 -0.78125 L 5.25 -0.78125 L 5.25 0 L 0.859375 0 L 0.859375 -7.125 Z M 5.25 -7.125 "/></g></g></g><g fill="#f4991a" fill-opacity="1"><g transform="translate(203.19211, 280.540294)"><g/></g></g><g fill="#f4991a" fill-opacity="1"><g transform="translate(210.27773, 280.540294)"><g><path d="M 2 0 L 1.046875 0 L 1.046875 -7.125 L 2 -7.125 Z M 2 0 "/></g></g></g><g fill="#f4991a" fill-opacity="1"><g transform="translate(218.496224, 280.540294)"><g><path d="M 5.71875 -7.125 L 5.71875 -6.3125 L 3.40625 -6.3125 L 3.40625 0 L 2.453125 0 L 2.453125 -6.3125 L 0.140625 -6.3125 L 0.140625 -7.125 Z M 5.71875 -7.125 "/></g></g></g><g fill="#f4991a" fill-opacity="1"><g transform="translate(229.527, 280.540294)"><g><path d="M 6.71875 0 L 5.984375 0 C 5.890625 0 5.816406 -0.0195312 5.765625 -0.0625 C 5.710938 -0.101562 5.675781 -0.160156 5.65625 -0.234375 L 4.984375 -1.953125 L 1.78125 -1.953125 L 1.125 -0.234375 C 1.101562 -0.171875 1.0625 -0.113281 1 -0.0625 C 0.945312 -0.0195312 0.878906 0 0.796875 0 L 0.046875 0 L 2.890625 -7.125 L 3.875 -7.125 Z M 2.0625 -2.640625 L 4.71875 -2.640625 L 3.59375 -5.546875 C 3.519531 -5.722656 3.453125 -5.941406 3.390625 -6.203125 C 3.347656 -6.066406 3.304688 -5.941406 3.265625 -5.828125 C 3.234375 -5.722656 3.203125 -5.625 3.171875 -5.53125 Z M 2.0625 -2.640625 "/></g></g></g><g fill="#f4991a" fill-opacity="1"><g transform="translate(241.452144, 280.540294)"><g><path d="M 3.546875 -2.453125 C 3.546875 -2.054688 3.492188 -1.703125 3.390625 -1.390625 C 3.296875 -1.078125 3.148438 -0.8125 2.953125 -0.59375 C 2.765625 -0.375 2.53125 -0.207031 2.25 -0.09375 C 1.976562 0.0195312 1.660156 0.078125 1.296875 0.078125 C 0.972656 0.078125 0.640625 0.03125 0.296875 -0.0625 C 0.304688 -0.15625 0.316406 -0.25 0.328125 -0.34375 C 0.335938 -0.4375 0.347656 -0.53125 0.359375 -0.625 C 0.359375 -0.675781 0.375 -0.71875 0.40625 -0.75 C 0.445312 -0.789062 0.503906 -0.8125 0.578125 -0.8125 C 0.628906 -0.8125 0.703125 -0.796875 0.796875 -0.765625 C 0.898438 -0.734375 1.035156 -0.71875 1.203125 -0.71875 C 1.421875 -0.71875 1.613281 -0.75 1.78125 -0.8125 C 1.957031 -0.882812 2.101562 -0.988281 2.21875 -1.125 C 2.34375 -1.269531 2.429688 -1.453125 2.484375 -1.671875 C 2.546875 -1.890625 2.578125 -2.144531 2.578125 -2.4375 L 2.578125 -7.125 L 3.546875 -7.125 Z M 3.546875 -2.453125 "/></g></g></g><g fill="#f4991a" fill-opacity="1"><g transform="translate(251.032061, 280.540294)"><g><path d="M 3.625 -0.765625 C 3.925781 -0.765625 4.191406 -0.8125 4.421875 -0.90625 C 4.648438 -1.007812 4.84375 -1.148438 5 -1.328125 C 5.164062 -1.503906 5.289062 -1.71875 5.375 -1.96875 C 5.457031 -2.21875 5.5 -2.492188 5.5 -2.796875 L 5.5 -7.125 L 6.46875 -7.125 L 6.46875 -2.796875 C 6.46875 -2.378906 6.398438 -1.992188 6.265625 -1.640625 C 6.140625 -1.296875 5.953125 -0.992188 5.703125 -0.734375 C 5.460938 -0.484375 5.164062 -0.285156 4.8125 -0.140625 C 4.457031 0.00390625 4.0625 0.078125 3.625 0.078125 C 3.1875 0.078125 2.789062 0.00390625 2.4375 -0.140625 C 2.09375 -0.285156 1.796875 -0.484375 1.546875 -0.734375 C 1.304688 -0.992188 1.117188 -1.296875 0.984375 -1.640625 C 0.859375 -1.992188 0.796875 -2.378906 0.796875 -2.796875 L 0.796875 -7.125 L 1.75 -7.125 L 1.75 -2.796875 C 1.75 -2.492188 1.789062 -2.21875 1.875 -1.96875 C 1.957031 -1.726562 2.078125 -1.515625 2.234375 -1.328125 C 2.398438 -1.148438 2.597656 -1.007812 2.828125 -0.90625 C 3.066406 -0.8125 3.332031 -0.765625 3.625 -0.765625 Z M 3.625 -0.765625 "/></g></g></g><g fill="#f4991a" fill-opacity="1"><g transform="translate(263.454072, 280.540294)"><g><path d="M 0.859375 0 L 0.859375 -7.125 L 3.140625 -7.125 C 3.578125 -7.125 3.953125 -7.078125 4.265625 -6.984375 C 4.578125 -6.898438 4.832031 -6.78125 5.03125 -6.625 C 5.238281 -6.46875 5.390625 -6.269531 5.484375 -6.03125 C 5.585938 -5.800781 5.640625 -5.546875 5.640625 -5.265625 C 5.640625 -5.085938 5.613281 -4.914062 5.5625 -4.75 C 5.507812 -4.59375 5.425781 -4.441406 5.3125 -4.296875 C 5.195312 -4.160156 5.054688 -4.035156 4.890625 -3.921875 C 4.722656 -3.816406 4.53125 -3.726562 4.3125 -3.65625 C 4.832031 -3.5625 5.222656 -3.375 5.484375 -3.09375 C 5.753906 -2.820312 5.890625 -2.46875 5.890625 -2.03125 C 5.890625 -1.726562 5.832031 -1.453125 5.71875 -1.203125 C 5.601562 -0.953125 5.4375 -0.738281 5.21875 -0.5625 C 5.007812 -0.382812 4.75 -0.242188 4.4375 -0.140625 C 4.132812 -0.046875 3.785156 0 3.390625 0 Z M 1.828125 -3.25 L 1.828125 -0.765625 L 3.375 -0.765625 C 3.644531 -0.765625 3.878906 -0.796875 4.078125 -0.859375 C 4.273438 -0.921875 4.4375 -1.007812 4.5625 -1.125 C 4.6875 -1.238281 4.78125 -1.375 4.84375 -1.53125 C 4.90625 -1.6875 4.9375 -1.859375 4.9375 -2.046875 C 4.9375 -2.421875 4.804688 -2.710938 4.546875 -2.921875 C 4.285156 -3.140625 3.890625 -3.25 3.359375 -3.25 Z M 1.828125 -3.9375 L 3.09375 -3.9375 C 3.375 -3.9375 3.613281 -3.960938 3.8125 -4.015625 C 4.007812 -4.078125 4.171875 -4.160156 4.296875 -4.265625 C 4.429688 -4.367188 4.53125 -4.492188 4.59375 -4.640625 C 4.65625 -4.796875 4.6875 -4.960938 4.6875 -5.140625 C 4.6875 -5.566406 4.5625 -5.875 4.3125 -6.0625 C 4.0625 -6.257812 3.671875 -6.359375 3.140625 -6.359375 L 1.828125 -6.359375 Z M 1.828125 -3.9375 "/></g></g></g><g fill="#f4991a" fill-opacity="1"><g transform="translate(275.051274, 280.540294)"><g><path d="M 6.71875 0 L 5.984375 0 C 5.890625 0 5.816406 -0.0195312 5.765625 -0.0625 C 5.710938 -0.101562 5.675781 -0.160156 5.65625 -0.234375 L 4.984375 -1.953125 L 1.78125 -1.953125 L 1.125 -0.234375 C 1.101562 -0.171875 1.0625 -0.113281 1 -0.0625 C 0.945312 -0.0195312 0.878906 0 0.796875 0 L 0.046875 0 L 2.890625 -7.125 L 3.875 -7.125 Z M 2.0625 -2.640625 L 4.71875 -2.640625 L 3.59375 -5.546875 C 3.519531 -5.722656 3.453125 -5.941406 3.390625 -6.203125 C 3.347656 -6.066406 3.304688 -5.941406 3.265625 -5.828125 C 3.234375 -5.722656 3.203125 -5.625 3.171875 -5.53125 Z M 5.0625 -8.859375 L 3.609375 -7.78125 C 3.546875 -7.738281 3.492188 -7.710938 3.453125 -7.703125 C 3.410156 -7.691406 3.351562 -7.6875 3.28125 -7.6875 L 2.609375 -7.6875 L 3.65625 -8.6875 C 3.6875 -8.71875 3.710938 -8.742188 3.734375 -8.765625 C 3.765625 -8.785156 3.796875 -8.800781 3.828125 -8.8125 C 3.859375 -8.832031 3.890625 -8.84375 3.921875 -8.84375 C 3.960938 -8.851562 4.007812 -8.859375 4.0625 -8.859375 Z M 5.0625 -8.859375 "/></g></g></g><g fill="#321313" fill-opacity="1"><g transform="translate(54.520062, 254.248527)"><g><path d="M 12.90625 0 L 4.3125 0 L 4.3125 -41.234375 L 12.90625 -41.234375 Z M 12.90625 0 "/></g></g></g><g fill="#321313" fill-opacity="1"><g transform="translate(71.74253, 254.248527)"><g><path d="M 13.359375 0.453125 C 12.035156 0.453125 10.859375 0.257812 9.828125 -0.125 C 8.804688 -0.507812 7.945312 -1.0625 7.25 -1.78125 C 6.550781 -2.507812 6.019531 -3.382812 5.65625 -4.40625 C 5.289062 -5.425781 5.109375 -6.582031 5.109375 -7.875 L 5.109375 -23.671875 L 2.359375 -23.671875 C 1.941406 -23.671875 1.585938 -23.800781 1.296875 -24.0625 C 1.003906 -24.332031 0.859375 -24.734375 0.859375 -25.265625 L 0.859375 -28.34375 L 5.546875 -29.1875 L 7.140625 -36.78125 C 7.347656 -37.632812 7.925781 -38.0625 8.875 -38.0625 L 12.953125 -38.0625 L 12.953125 -29.125 L 20.515625 -29.125 L 20.515625 -23.671875 L 12.953125 -23.671875 L 12.953125 -8.390625 C 12.953125 -7.566406 13.144531 -6.914062 13.53125 -6.4375 C 13.925781 -5.96875 14.484375 -5.734375 15.203125 -5.734375 C 15.585938 -5.734375 15.910156 -5.773438 16.171875 -5.859375 C 16.429688 -5.953125 16.65625 -6.050781 16.84375 -6.15625 C 17.039062 -6.257812 17.21875 -6.351562 17.375 -6.4375 C 17.539062 -6.519531 17.707031 -6.5625 17.875 -6.5625 C 18.101562 -6.5625 18.289062 -6.507812 18.4375 -6.40625 C 18.59375 -6.300781 18.75 -6.128906 18.90625 -5.890625 L 21.265625 -2.125 C 20.179688 -1.28125 18.957031 -0.640625 17.59375 -0.203125 C 16.226562 0.234375 14.816406 0.453125 13.359375 0.453125 Z M 13.359375 0.453125 "/></g></g></g><g fill="#321313" fill-opacity="1"><g transform="translate(93.199563, 254.248527)"><g><path d="M 18.5625 -12.25 C 16.644531 -12.15625 15.050781 -11.988281 13.78125 -11.75 C 12.507812 -11.507812 11.5 -11.203125 10.75 -10.828125 C 10.007812 -10.453125 9.484375 -10.019531 9.171875 -9.53125 C 8.859375 -9.050781 8.703125 -8.523438 8.703125 -7.953125 C 8.703125 -6.816406 9.015625 -6.007812 9.640625 -5.53125 C 10.273438 -5.0625 11.164062 -4.828125 12.3125 -4.828125 C 13.613281 -4.828125 14.742188 -5.054688 15.703125 -5.515625 C 16.660156 -5.984375 17.613281 -6.710938 18.5625 -7.703125 Z M 2.59375 -25.234375 C 4.3125 -26.785156 6.210938 -27.945312 8.296875 -28.71875 C 10.378906 -29.488281 12.632812 -29.875 15.0625 -29.875 C 16.800781 -29.875 18.359375 -29.585938 19.734375 -29.015625 C 21.109375 -28.453125 22.273438 -27.660156 23.234375 -26.640625 C 24.191406 -25.628906 24.925781 -24.421875 25.4375 -23.015625 C 25.945312 -21.617188 26.203125 -20.085938 26.203125 -18.421875 L 26.203125 0 L 22.625 0 C 21.882812 0 21.316406 -0.101562 20.921875 -0.3125 C 20.535156 -0.519531 20.222656 -0.957031 19.984375 -1.625 L 19.359375 -3.5 C 18.617188 -2.851562 17.898438 -2.28125 17.203125 -1.78125 C 16.515625 -1.289062 15.800781 -0.878906 15.0625 -0.546875 C 14.320312 -0.222656 13.53125 0.0195312 12.6875 0.1875 C 11.84375 0.363281 10.898438 0.453125 9.859375 0.453125 C 8.578125 0.453125 7.40625 0.285156 6.34375 -0.046875 C 5.28125 -0.390625 4.363281 -0.898438 3.59375 -1.578125 C 2.820312 -2.253906 2.226562 -3.09375 1.8125 -4.09375 C 1.394531 -5.09375 1.1875 -6.25 1.1875 -7.5625 C 1.1875 -8.644531 1.460938 -9.722656 2.015625 -10.796875 C 2.566406 -11.878906 3.507812 -12.859375 4.84375 -13.734375 C 6.175781 -14.617188 7.957031 -15.347656 10.1875 -15.921875 C 12.414062 -16.503906 15.207031 -16.832031 18.5625 -16.90625 L 18.5625 -18.421875 C 18.5625 -20.253906 18.171875 -21.601562 17.390625 -22.46875 C 16.617188 -23.332031 15.503906 -23.765625 14.046875 -23.765625 C 12.960938 -23.765625 12.0625 -23.632812 11.34375 -23.375 C 10.625 -23.125 9.992188 -22.847656 9.453125 -22.546875 C 8.910156 -22.253906 8.398438 -21.976562 7.921875 -21.71875 C 7.453125 -21.46875 6.90625 -21.34375 6.28125 -21.34375 C 5.726562 -21.34375 5.265625 -21.476562 4.890625 -21.75 C 4.523438 -22.03125 4.222656 -22.359375 3.984375 -22.734375 Z M 2.59375 -25.234375 "/></g></g></g><g fill="#321313" fill-opacity="1"><g transform="translate(122.301554, 254.248527)"><g><path d="M 12.84375 -24.21875 L 14.53125 -24.21875 C 15.925781 -24.21875 16.9375 -24.648438 17.5625 -25.515625 L 28 -39.484375 C 28.488281 -40.140625 29.023438 -40.59375 29.609375 -40.84375 C 30.203125 -41.101562 30.925781 -41.234375 31.78125 -41.234375 L 39.171875 -41.234375 L 26.03125 -24.328125 C 25.175781 -23.234375 24.296875 -22.445312 23.390625 -21.96875 C 24.054688 -21.707031 24.65625 -21.363281 25.1875 -20.9375 C 25.71875 -20.507812 26.226562 -19.941406 26.71875 -19.234375 L 40.1875 0 L 32.59375 0 C 32.101562 0 31.679688 -0.0351562 31.328125 -0.109375 C 30.984375 -0.191406 30.675781 -0.296875 30.40625 -0.421875 C 30.144531 -0.554688 29.914062 -0.722656 29.71875 -0.921875 C 29.53125 -1.117188 29.351562 -1.351562 29.1875 -1.625 L 18.59375 -16.453125 C 18.226562 -16.960938 17.796875 -17.328125 17.296875 -17.546875 C 16.804688 -17.765625 16.117188 -17.875 15.234375 -17.875 L 12.84375 -17.875 L 12.84375 0 L 4.3125 0 L 4.3125 -41.234375 L 12.84375 -41.234375 Z M 12.84375 -24.21875 "/></g></g></g><g fill="#321313" fill-opacity="1"><g transform="translate(161.805235, 254.248527)"><g><path d="M 11.3125 -29.296875 L 11.3125 0 L 3.46875 0 L 3.46875 -29.296875 Z M 12.25 -37.625 C 12.25 -36.96875 12.113281 -36.351562 11.84375 -35.78125 C 11.582031 -35.21875 11.226562 -34.71875 10.78125 -34.28125 C 10.34375 -33.84375 9.820312 -33.5 9.21875 -33.25 C 8.625 -33.007812 7.984375 -32.890625 7.296875 -32.890625 C 6.660156 -32.890625 6.050781 -33.007812 5.46875 -33.25 C 4.894531 -33.5 4.390625 -33.84375 3.953125 -34.28125 C 3.515625 -34.71875 3.164062 -35.21875 2.90625 -35.78125 C 2.65625 -36.351562 2.53125 -36.96875 2.53125 -37.625 C 2.53125 -38.289062 2.65625 -38.910156 2.90625 -39.484375 C 3.164062 -40.066406 3.515625 -40.578125 3.953125 -41.015625 C 4.390625 -41.453125 4.894531 -41.789062 5.46875 -42.03125 C 6.050781 -42.28125 6.660156 -42.40625 7.296875 -42.40625 C 7.984375 -42.40625 8.625 -42.28125 9.21875 -42.03125 C 9.820312 -41.789062 10.34375 -41.453125 10.78125 -41.015625 C 11.226562 -40.578125 11.582031 -40.066406 11.84375 -39.484375 C 12.113281 -38.910156 12.25 -38.289062 12.25 -37.625 Z M 12.25 -37.625 "/></g></g></g><g fill="#321313" fill-opacity="1"><g transform="translate(176.58358, 254.248527)"><g><path d="M 13.359375 0.453125 C 12.035156 0.453125 10.859375 0.257812 9.828125 -0.125 C 8.804688 -0.507812 7.945312 -1.0625 7.25 -1.78125 C 6.550781 -2.507812 6.019531 -3.382812 5.65625 -4.40625 C 5.289062 -5.425781 5.109375 -6.582031 5.109375 -7.875 L 5.109375 -23.671875 L 2.359375 -23.671875 C 1.941406 -23.671875 1.585938 -23.800781 1.296875 -24.0625 C 1.003906 -24.332031 0.859375 -24.734375 0.859375 -25.265625 L 0.859375 -28.34375 L 5.546875 -29.1875 L 7.140625 -36.78125 C 7.347656 -37.632812 7.925781 -38.0625 8.875 -38.0625 L 12.953125 -38.0625 L 12.953125 -29.125 L 20.515625 -29.125 L 20.515625 -23.671875 L 12.953125 -23.671875 L 12.953125 -8.390625 C 12.953125 -7.566406 13.144531 -6.914062 13.53125 -6.4375 C 13.925781 -5.96875 14.484375 -5.734375 15.203125 -5.734375 C 15.585938 -5.734375 15.910156 -5.773438 16.171875 -5.859375 C 16.429688 -5.953125 16.65625 -6.050781 16.84375 -6.15625 C 17.039062 -6.257812 17.21875 -6.351562 17.375 -6.4375 C 17.539062 -6.519531 17.707031 -6.5625 17.875 -6.5625 C 18.101562 -6.5625 18.289062 -6.507812 18.4375 -6.40625 C 18.59375 -6.300781 18.75 -6.128906 18.90625 -5.890625 L 21.265625 -2.125 C 20.179688 -1.28125 18.957031 -0.640625 17.59375 -0.203125 C 16.226562 0.234375 14.816406 0.453125 13.359375 0.453125 Z M 13.359375 0.453125 "/></g></g></g><g fill="#321313" fill-opacity="1"><g transform="translate(198.040613, 254.248527)"><g><path d="M 24.5 -22.765625 C 24.269531 -22.460938 24.039062 -22.226562 23.8125 -22.0625 C 23.582031 -21.90625 23.257812 -21.828125 22.84375 -21.828125 C 22.46875 -21.828125 22.101562 -21.9375 21.75 -22.15625 C 21.40625 -22.375 21.003906 -22.609375 20.546875 -22.859375 C 20.085938 -23.117188 19.546875 -23.359375 18.921875 -23.578125 C 18.296875 -23.796875 17.519531 -23.90625 16.59375 -23.90625 C 15.425781 -23.90625 14.410156 -23.691406 13.546875 -23.265625 C 12.679688 -22.835938 11.960938 -22.222656 11.390625 -21.421875 C 10.828125 -20.628906 10.40625 -19.664062 10.125 -18.53125 C 9.851562 -17.394531 9.71875 -16.113281 9.71875 -14.6875 C 9.71875 -11.695312 10.316406 -9.40625 11.515625 -7.8125 C 12.722656 -6.21875 14.367188 -5.421875 16.453125 -5.421875 C 17.171875 -5.421875 17.789062 -5.484375 18.3125 -5.609375 C 18.832031 -5.734375 19.285156 -5.890625 19.671875 -6.078125 C 20.066406 -6.265625 20.40625 -6.472656 20.6875 -6.703125 C 20.976562 -6.929688 21.25 -7.140625 21.5 -7.328125 C 21.757812 -7.515625 22.015625 -7.671875 22.265625 -7.796875 C 22.523438 -7.921875 22.816406 -7.984375 23.140625 -7.984375 C 23.742188 -7.984375 24.21875 -7.753906 24.5625 -7.296875 L 26.796875 -4.46875 C 25.960938 -3.5 25.070312 -2.695312 24.125 -2.0625 C 23.175781 -1.425781 22.195312 -0.921875 21.1875 -0.546875 C 20.175781 -0.179688 19.148438 0.0664062 18.109375 0.203125 C 17.066406 0.347656 16.03125 0.421875 15 0.421875 C 13.207031 0.421875 11.503906 0.0859375 9.890625 -0.578125 C 8.273438 -1.253906 6.863281 -2.234375 5.65625 -3.515625 C 4.445312 -4.804688 3.484375 -6.390625 2.765625 -8.265625 C 2.054688 -10.140625 1.703125 -12.28125 1.703125 -14.6875 C 1.703125 -16.832031 2.015625 -18.820312 2.640625 -20.65625 C 3.265625 -22.5 4.179688 -24.09375 5.390625 -25.4375 C 6.609375 -26.78125 8.113281 -27.832031 9.90625 -28.59375 C 11.695312 -29.363281 13.765625 -29.75 16.109375 -29.75 C 18.347656 -29.75 20.3125 -29.390625 22 -28.671875 C 23.6875 -27.953125 25.203125 -26.910156 26.546875 -25.546875 Z M 24.5 -22.765625 "/></g></g></g><g fill="#321313" fill-opacity="1"><g transform="translate(225.551079, 254.248527)"><g><path d="M 11.078125 -26.4375 C 11.628906 -26.925781 12.203125 -27.375 12.796875 -27.78125 C 13.398438 -28.1875 14.035156 -28.535156 14.703125 -28.828125 C 15.378906 -29.128906 16.097656 -29.359375 16.859375 -29.515625 C 17.628906 -29.671875 18.460938 -29.75 19.359375 -29.75 C 20.953125 -29.75 22.363281 -29.472656 23.59375 -28.921875 C 24.820312 -28.378906 25.859375 -27.613281 26.703125 -26.625 C 27.546875 -25.644531 28.179688 -24.472656 28.609375 -23.109375 C 29.035156 -21.742188 29.25 -20.242188 29.25 -18.609375 L 29.25 0 L 21.4375 0 L 21.4375 -18.609375 C 21.4375 -20.242188 21.054688 -21.507812 20.296875 -22.40625 C 19.535156 -23.3125 18.414062 -23.765625 16.9375 -23.765625 C 15.84375 -23.765625 14.8125 -23.523438 13.84375 -23.046875 C 12.875 -22.578125 11.953125 -21.914062 11.078125 -21.0625 L 11.078125 0 L 3.234375 0 L 3.234375 -42.375 L 11.078125 -42.375 Z M 11.078125 -26.4375 "/></g></g></g><g fill="#321313" fill-opacity="1"><g transform="translate(257.779256, 254.248527)"><g><path d="M 21.828125 -18.109375 C 21.828125 -18.921875 21.71875 -19.695312 21.5 -20.4375 C 21.28125 -21.175781 20.929688 -21.828125 20.453125 -22.390625 C 19.984375 -22.960938 19.390625 -23.414062 18.671875 -23.75 C 17.953125 -24.082031 17.09375 -24.25 16.09375 -24.25 C 14.207031 -24.25 12.734375 -23.71875 11.671875 -22.65625 C 10.617188 -21.59375 9.929688 -20.078125 9.609375 -18.109375 Z M 9.5 -13.4375 C 9.738281 -10.695312 10.515625 -8.691406 11.828125 -7.421875 C 13.148438 -6.148438 14.875 -5.515625 17 -5.515625 C 18.070312 -5.515625 19 -5.640625 19.78125 -5.890625 C 20.570312 -6.148438 21.265625 -6.4375 21.859375 -6.75 C 22.460938 -7.0625 23.003906 -7.34375 23.484375 -7.59375 C 23.972656 -7.851562 24.453125 -7.984375 24.921875 -7.984375 C 25.523438 -7.984375 26 -7.753906 26.34375 -7.296875 L 28.625 -4.46875 C 27.789062 -3.5 26.867188 -2.695312 25.859375 -2.0625 C 24.859375 -1.425781 23.816406 -0.921875 22.734375 -0.546875 C 21.660156 -0.179688 20.570312 0.0664062 19.46875 0.203125 C 18.375 0.347656 17.3125 0.421875 16.28125 0.421875 C 14.238281 0.421875 12.332031 0.0859375 10.5625 -0.578125 C 8.789062 -1.253906 7.242188 -2.25 5.921875 -3.5625 C 4.609375 -4.882812 3.570312 -6.519531 2.8125 -8.46875 C 2.050781 -10.414062 1.671875 -12.679688 1.671875 -15.265625 C 1.671875 -17.253906 2 -19.128906 2.65625 -20.890625 C 3.3125 -22.648438 4.253906 -24.179688 5.484375 -25.484375 C 6.710938 -26.796875 8.207031 -27.832031 9.96875 -28.59375 C 11.738281 -29.363281 13.726562 -29.75 15.9375 -29.75 C 17.820312 -29.75 19.550781 -29.453125 21.125 -28.859375 C 22.707031 -28.265625 24.070312 -27.398438 25.21875 -26.265625 C 26.363281 -25.128906 27.253906 -23.726562 27.890625 -22.0625 C 28.523438 -20.40625 28.84375 -18.519531 28.84375 -16.40625 C 28.84375 -15.8125 28.8125 -15.320312 28.75 -14.9375 C 28.695312 -14.5625 28.601562 -14.257812 28.46875 -14.03125 C 28.34375 -13.8125 28.164062 -13.65625 27.9375 -13.5625 C 27.707031 -13.476562 27.414062 -13.4375 27.0625 -13.4375 Z M 9.5 -13.4375 "/></g></g></g><g fill="#321313" fill-opacity="1"><g transform="translate(288.245414, 254.248527)"><g><path d="M 10.515625 -25.890625 C 11.097656 -26.460938 11.707031 -26.984375 12.34375 -27.453125 C 12.976562 -27.929688 13.648438 -28.335938 14.359375 -28.671875 C 15.078125 -29.015625 15.847656 -29.28125 16.671875 -29.46875 C 17.492188 -29.65625 18.390625 -29.75 19.359375 -29.75 C 20.953125 -29.75 22.363281 -29.472656 23.59375 -28.921875 C 24.820312 -28.378906 25.859375 -27.613281 26.703125 -26.625 C 27.546875 -25.644531 28.179688 -24.472656 28.609375 -23.109375 C 29.035156 -21.742188 29.25 -20.242188 29.25 -18.609375 L 29.25 0 L 21.4375 0 L 21.4375 -18.609375 C 21.4375 -20.242188 21.054688 -21.507812 20.296875 -22.40625 C 19.535156 -23.3125 18.414062 -23.765625 16.9375 -23.765625 C 15.84375 -23.765625 14.8125 -23.523438 13.84375 -23.046875 C 12.875 -22.578125 11.953125 -21.914062 11.078125 -21.0625 L 11.078125 0 L 3.234375 0 L 3.234375 -29.296875 L 8.078125 -29.296875 C 9.054688 -29.296875 9.707031 -28.84375 10.03125 -27.9375 Z M 10.515625 -25.890625 "/></g></g></g></svg>